<svg xmlns="http://www.w3.org/2000/svg" id="Layer_1" viewBox="0 0 438.7 171.6">
  <style>
    .st1{fill:#fff}
  </style>
  <g id="Group_3" transform="translate(-185.84 -162.9)">
    <g id="Group_1" transform="translate(186.34 273.32)">
      <g id="newer-logo" transform="translate(-.5 -110.42)">
        <g id="new-logo">
          <path id="Shape" fill="#cb0000" d="M214 0l57.8 98.2h166.9V0H214zm89.3 83h-13.2l-20-34.6 10.3.1c6.3-.1 11.5-5.2 11.5-11.5 0-2.9-1.2-5.8-3.5-7.7-2.1-2.1-5.1-3.2-8-3h-23.6L250 13.8h30.3c12.7.1 23 10.4 23 23.1.1 4.7-1.3 9.3-4.1 13.1-2.5 3.7-6 6.6-10.1 8.3L303.3 83zm56.6 0h-47.6l12.5-11.1h35.1V83zm0-29.1h-47v-11h47v11zm0-27.6h-35.1l-11.5-12.4h46.6v12.4zm60 35.6c-1.8 4.1-4.3 7.8-7.4 11.1-3.2 3.1-6.9 5.6-11.1 7.4s-8.8 2.7-13.4 2.7h-23L376.5 72H388c3.1 0 6.1-.7 9-1.9 2.8-1.2 5.3-2.9 7.3-5.1 2.1-2.1 3.7-4.7 4.9-7.4a22.9 22.9 0 0 0 0-17.8c-1.2-2.7-2.9-5.2-5-7.3-2.1-2-4.6-3.6-7.3-4.7-2.9-1-5.9-1.5-8.9-1.4h-11.6L365 13.8h23c4.6 0 9.2 1 13.4 2.8 4.1 1.8 7.8 4.3 11 7.5s5.7 6.9 7.5 11.1a34.8 34.8 0 0 1 0 26.7z"/>
          <path id="Shape-2" d="M10.2 72.9c-3.1-3.2-5.7-6.9-7.4-11C.9 57.7 0 53.1 0 48.6c0-4.6.9-9.2 2.8-13.5A34.67 34.67 0 0 1 48 16.7c4.1 1.8 7.9 4.3 11.1 7.5l-8.2 8c-4.3-4.3-10.2-6.7-16.2-6.7-3.1 0-6.1.6-9 1.7-2.8 1.1-5.3 2.8-7.3 5-2.1 2.1-3.8 4.6-4.9 7.3a23.4 23.4 0 0 0 0 18c2.5 5.4 6.8 9.8 12.3 12.3 2.9 1.1 15.1 2.3 17.4 0l7.8 9c-6.7 5.4-21.1 5.2-29.6 1.5-4.3-1.7-8-4.2-11.2-7.4z" class="st1"/>
          <path id="Shape-3" d="M119.4 24.2c13.5 13.5 13.6 35.3.1 48.8s-35.3 13.6-48.8.1-13.6-35.3-.1-48.8l.1-.1a34.25 34.25 0 0 1 48.4-.4c.1.2.2.3.3.4zm-40.7 8.1a23.06 23.06 0 1 0 32.6 0C107 28 101.1 25.6 95 25.6c-6.1-.1-12 2.3-16.3 6.7z" class="st1"/>
          <path id="Shape-4" d="M180.6 48.6c0 4.6-.9 9.1-2.7 13.3-1.8 4.1-4.3 7.8-7.4 11.1-3.2 3.2-6.9 5.7-11.1 7.4-4.2 1.8-8.8 2.8-13.4 2.8h-23l11.5-11.6H146c3.1 0 6.1-.6 9-1.7 2.8-1.2 5.2-2.9 7.3-5s3.7-4.6 4.9-7.3a22.9 22.9 0 0 0 0-17.8c-1.2-2.7-2.9-5.2-5-7.3s-4.6-3.8-7.3-5c-2.8-1.1-5.9-1.7-8.9-1.7h-11.6L123 14h23c4.6 0 9.2.9 13.4 2.8 4.1 1.8 7.9 4.3 11.1 7.4 3.2 3.2 5.7 6.9 7.5 11.1 1.7 4.2 2.6 8.7 2.6 13.3z" class="st1"/>
          <path id="Shape-5" d="M236.1 14v11.6h-34.6L190.1 14h46zm-34.5 28.9h34.6v11.5h-46V42.9h11.4zm0 28.6h34.6v11.6h-46v-1l11.4-10.6z" class="st1"/>
        </g>
      </g>
    </g>
    <g id="Group_2">
      <g id="Path_38">
        <path fill="none" d="M0 0h437.4v61.2H0V0z" transform="translate(186.34 273.32)"/>
        <path d="M1 1v59.2h435.4V1H1M0 0h437.4v61.2H0V0z" class="st1" transform="translate(186.34 273.32)"/>
      </g>
      <path id="V" d="M261.3 297.3l-6.6 12.7-6.6-12.7h-8.4l15 29 22.5-43.4h-8.3l-3.8 7.2-3.8 7.2zm-25.4-7.2h8.3l-3.7-7.2H232l3.9 7.2z" class="st1"/>
      <path id="A" d="M429 311.9l6.6-12.7 6.6 12.7h8.4l-15-29-22.5 43.4h8.3l3.8-7.2 3.8-7.2zm25.5 7.2h-8.3l3.7 7.2h8.4l-3.8-7.2z" class="st1"/>
      <g id="G">
        <path id="Shape-2_1_" d="M485.8 320.3c-2-2-3.6-4.4-4.7-7-1.2-2.7-1.8-5.6-1.8-8.4 0-2.9.6-5.8 1.8-8.6 1.1-2.6 2.7-5 4.7-6.9 6.3-6.3 15.8-8.2 24-4.8 2.6 1.1 5 2.7 7 4.8l-5.2 5.1a14.8 14.8 0 0 0-16-3.2c-1.8.7-3.4 1.8-4.6 3.2-1.3 1.3-2.4 2.9-3.1 4.6a15 15 0 0 0 0 11.4 16 16 0 0 0 7.8 7.8c1.8.7 9.6 1.5 11 0l5 5.7c-4.3 3.4-13.4 3.3-18.8 1-2.7-1.1-5-2.7-7.1-4.7z" class="st1"/>
        <path d="M501.9 311.9v.6h15v-6.7h-11.2z" class="st1"/>
      </g>
      <g id="E">
        <path d="M546.5 326.1v.6h29.4v-7.4h-22zM546.5 300.9h29.4v7.4h-29.4zM553.9 289.9h22v-7.3h-29.4z" class="st1"/>
      </g>
      <path id="Y" d="M393.5 282.6l-12.6 16-12.5-16h-9.5l18.2 22 .5 22.1 6.9-5.4.1-16.7 16.5-22z" class="st1"/>
      <path id="O" d="M318.8 282.6c-5.8-.2-11.5 2.3-15.6 6.4-4.3 4.1-6.6 9.7-6.4 15.6-.2 5.8 2.3 11.5 6.4 15.6 4 4.3 9.7 6.6 15.6 6.4 5.8.2 11.5-2.3 15.6-6.4 4.3-4 6.6-9.7 6.6-15.6 0-5.8-2.3-11.5-6.6-15.6-4.1-4.3-9.8-6.6-15.6-6.4zm10.4 32.4c-2.8 2.8-6.4 4.3-10.4 4.3s-7.7-1.5-10.4-4.3-4.3-6.4-4.3-10.4c0-3.8 1.5-7.7 4.3-10.4s6.6-4.4 10.4-4.3c3.8 0 7.7 1.5 10.4 4.3 2.8 2.8 4.3 6.4 4.3 10.4s-1.5 7.7-4.3 10.4z" class="st1"/>
    </g>
  </g>
</svg>
