<svg xmlns="http://www.w3.org/2000/svg" id="Layer_1" viewBox="0 0 438.7 171.6"><defs/><style>.st1{fill:#fff}</style><g id="Group_3" transform="translate(-185.8 -162.9)"><g id="Group_1" transform="translate(186.3 273.3)"><g id="newer-logo" transform="translate(-.5 -110.4)"><g id="new-logo"><path id="Shape" fill="#cb0000" d="M214 0l57.8 98.2h166.9V0H214zm89.3 83h-13.2l-20-34.6 10.3.1c6.3-.1 11.5-5.2 11.5-11.5a10 10 0 00-3.5-7.7 10.5 10.5 0 00-8-3h-23.6L250 13.8h30.3a23.2 23.2 0 018.8 44.5L303.3 83zm56.6 0h-47.6l12.5-11.1h35.1V83zm0-29.1h-47v-11h47v11zm0-27.6h-35.1l-11.5-12.4h46.6v12.4zm60 35.6a39.2 39.2 0 01-7.4 11.1A34.1 34.1 0 01388 83.1h-23L376.5 72H388a23.4 23.4 0 0016.3-7 22.9 22.9 0 00-.1-32.5c-2.1-2-4.6-3.6-7.3-4.7-2.9-1-5.9-1.5-8.9-1.4h-11.6L365 13.8h23a34.2 34.2 0 0124.4 10.3 34.4 34.4 0 017.5 37.8z"/><path id="Shape-2" d="M10.2 72.9A35.5 35.5 0 010 48.6a34.7 34.7 0 0159.1-24.4l-8.2 8a23 23 0 00-25.2-5 19.4 19.4 0 00-7.3 5 23.4 23.4 0 00-4.9 25.3 25 25 0 0012.3 12.3c2.9 1.1 15.1 2.3 17.4 0l7.8 9c-6.7 5.4-21.1 5.2-29.6 1.5-4.3-1.7-8-4.2-11.2-7.4z" class="st1"/><path id="Shape-3" d="M119.4 24.2a34.5 34.5 0 11-48.8.1l.1-.1a34.3 34.3 0 0148.7 0zm-40.7 8.1a23 23 0 1032.6 0 23 23 0 00-32.6 0z" class="st1"/><path id="Shape-4" d="M180.6 48.6c0 4.6-.9 9.1-2.7 13.3a33.2 33.2 0 01-18.5 18.5 34.2 34.2 0 01-13.4 2.8h-23l11.5-11.6H146c3.1 0 6.1-.6 9-1.7a23.1 23.1 0 0012.2-30.1 24.3 24.3 0 00-12.3-12.3 24.7 24.7 0 00-8.9-1.7h-11.6L123 14h23c4.6 0 9.2.9 13.4 2.8A35.1 35.1 0 01178 35.3c1.7 4.2 2.6 8.7 2.6 13.3z" class="st1"/><path id="Shape-5" d="M236.1 14v11.6h-34.6L190.1 14h46zm-34.5 28.9h34.6v11.5h-46V42.9h11.4zm0 28.6h34.6v11.6h-46v-1l11.4-10.6z" class="st1"/></g></g></g><g id="Group_2"><g id="Path_38"><path fill="none" d="M186.3 273.3h437.4v61.2H186.3v-61.2z"/><path d="M187.3 274.3v59.2h435.4v-59.2H187.3m-1-1h437.4v61.2H186.3v-61.2z" class="st1"/></g><path id="V" d="M283.3 298l-5.6 10.7-5.6-10.7H265l12.7 24.5 19-36.7h-7l-3.2 6.1-3.2 6.1zm-21.5-6.1h7l-3.1-6.1h-7.2l3.3 6.1z" class="st1"/><path id="A" d="M425.1 310.4l5.6-10.7 5.6 10.7h7.1l-12.7-24.5-19 36.7h7l3.2-6.1 3.2-6.1zm21.6 6.1h-7l3.1 6.1h7.1l-3.2-6.1z" class="st1"/><g id="G"><path id="Shape-2_1_" d="M473.2 317.5c-1.7-1.7-3-3.7-4-5.9a17.8 17.8 0 010-14.4 18.9 18.9 0 0124.3-9.9 17 17 0 015.9 4.1l-4.4 4.3a12.5 12.5 0 00-13.5-2.7 12.7 12.7 0 00-6.5 6.6 12.3 12.3 0 000 9.6c1.3 2.9 3.7 5.2 6.6 6.6 1.5.6 8.1 1.3 9.3 0l4.2 4.8c-3.6 2.9-11.3 2.8-15.9.8-2.3-.9-4.2-2.2-6-3.9z" class="st1"/><path d="M486.8 310.4v.5h12.7v-5.7H490l-3.2 5.2z" class="st1"/></g><path id="E" d="M524.5 322.4v.5h24.9v-6.3h-18.6l-6.3 5.8zm0-21.3h24.9v6.3h-24.9v-6.3zm6.3-9.3h18.6v-6.2h-24.9l6.3 6.2z" class="st1"/><path id="Y" d="M395.1 285.6l-10.7 13.5-10.6-13.5h-8l15.4 18.6.4 18.7 5.8-4.6.1-14.1 14-18.6h-6.4z" class="st1"/><path id="O" d="M331.9 285.6c-4.9-.2-9.7 1.9-13.2 5.4a17.4 17.4 0 00-5.4 13.2c-.2 4.9 1.9 9.7 5.4 13.2 3.4 3.6 8.2 5.6 13.2 5.4 4.9.2 9.7-1.9 13.2-5.4 3.6-3.4 5.6-8.2 5.6-13.2a18 18 0 00-5.6-13.2 17.4 17.4 0 00-13.2-5.4zm8.8 27.4a12 12 0 01-8.8 3.6 12.3 12.3 0 01-12.4-12.4c0-3.2 1.3-6.5 3.6-8.8a12.7 12.7 0 0117.6 0 12 12 0 013.6 8.8c.1 3.4-1.2 6.5-3.6 8.8z" class="st1"/></g></g></svg>
