<svg id="Layer_1" xmlns="http://www.w3.org/2000/svg" viewBox="-112 172 387 449"><defs/><style>.st0{fill:#cacaca}.st1{fill:#949494}.st2{fill:#5f5f5f}.st3{fill:#313131}.st4{fill:#4a4a4a}.st5{fill:#afafaf}.st6{fill:#232323}.st7{fill:#151515}.st8{fill:none}.st9{fill:#e4e4e4}.st10{fill:#404040}.st11{fill:#797979}</style><path class="st0" d="M-53 192l-10-7h-3l-6-2-6-1v-1l13-1 20 12v1M-79 181h1v1h-3"/><path class="st0" d="M-102 195l6-9 7-4 11-1-4 4-3 2-1-1-1 2-7 4-6 11h-1l-2 2-2 2"/><path class="st1" d="M-78 185h-5l4-4 7 2 6 1v1h-9"/><path class="st2" d="M-95 192l7-5 1 1-5 4-2 2m8-8l4-2h17l3 1-11 4-4 1"/><path class="st3" d="M-88 196h-5l-1-3 1-2 7-5 11 4-5 1 1 3h-6l1 3 1 2"/><path class="st4" d="M-104 235l1-24h10l-3-8-3-2 5-1-3-2 3-8 1 3 1 2h4l3 1-1-1-1-2h7l-1-3h1l3-1 3-1 11-4 11 7 7 8-9-2 17 15-3-10 3 2h1l3 3 2 3 9 11-4-1 6 9-15-3-1-1v-10l-14-1-3-2-4-15-15 9-7 6-10 2h-4l-1 3v8l-5-4v-3l-2-1-2 18"/><path class="st5" d="M-36 205l-3-1-2-1-5-4-8-8 9 1 10 8-1 4v1"/><path class="st2" d="M-103 211l1-3 1-6 6-11 1 1-2 6 4 2 2 1h-7l2 2 2 8 1 1h-11m33 17v-8l-1-2-11-3-7-2v-1l9-1 7-6 17-10 4 17h-23l5 4 2 5-1 7"/><path class="st3" d="M-57 196l4 1 5 1h3l4 4 2 1 3 10 1 2"/><path class="st0" d="M-15 226l-8-6-8-10-2-2-4-3v-1l1-5 16 15 13 15v1"/><path class="st5" d="M-105 245l-1-4-1-20 3-16 4-4-1 7-1 4-1 23 1 5-2 4v2"/><path class="st1" d="M-43 249l-9 4-1 1-1-2-7-12-9-5v-6l1-7-2-4-6-6h24l3 1 2 1h-1l13 10h1l1 1 1 2 9 9v1l4 7-8 14-15-9zm5-7l-3-3-8-10-4 9 1 2 14 3z"/><path class="st3" d="M-86 290v-5l2-2-1-2 1-3h2v-1h1l-6-4v-1l-10-16v-5l-4-1-2-10-1-5 3-19 3 2v3l4 2v-10h5l8 2v13l11 7-4 9 7 2 6 3v10l16 3-1 2-1 2-1 1-6 8-2 2-3 9-1 1-1-1-2-3 4-6v1-1l-6 2 1-4-5 3-2-2v-4l-4 1v1l2 3 1 8-5-4v2l-4 1v1h-1l-3 2 3 4-3 1-1-2zm5-23l4-2h-7l3 2zm3-6v-1l-6-7-7-1-5-1 7 7 11 3zm-15-24l-3 3 5-1-1-2-1-2-6 1 5 1zm0-2l-1-2h-2l3 2z"/><path class="st2" d="M-52 213h2l15 1v12"/><path class="st4" d="M-70 236l-1-1-11-6v-14l12 4 1 2v15"/><path class="st3" d="M-13 265v-1h1v2m46 0v1l-1-1h1z"/><path class="st2" d="M-25 237l-11-12h2l13 3h1v1l-5 8"/><path class="st1" d="M-4 242v-1l-12-15h1l8 3 8 8 7 9"/><path class="st5" d="M-52 241l-2-3 5-11 9 11 4 6"/><path class="st6" d="M-95 238l-6-2v-1l5-1-2-1 3-1v-2h1l3 7 1 2-9 2"/><path class="st2" d="M-62 248l-1-8-11 5-1-1 4-9v-1l1 1 10 5 7 13"/><path class="st6" d="M7 270l-12-7-2-11-9-1h-1l4-16 4 4 5 1h1v1l10 13 1 1 4 7 3-7 1 1 1 3v2l-2 9 1 4 2 2 1 3"/><path class="st4" d="M-62 260v-10l-5-3-8-3 13-6v9l9 5 1 1-9 7m-28 15l-1-3v-1l-2-2v2h-1v-2l-1-1-5-10-6-14 2-6 3 12 9 1 7 1 7 8-1 1-12-3-6-6v4l10 15v2l8 5h-5l-1 3-2 1"/><path class="st3" d="M6 255l-11-15 12 4 2 1-2 9v1"/><path class="st4" d="M-29 258l1-1 8-13v-1l9 20"/><path class="st2" d="M6 254l2-10 8 11H7"/><path class="st5" d="M-52 255l1-1-1 1m17 38l-2-11-11-8 14-8-5-6-13-5-1-2 10-5 15 9 13 13-4 8-1 2 1 12-8 2 4 8"/><path class="st2" d="M-62 260l9-7 2 1 6 9"/><path class="st1" d="M-25 353l-1-1h2v1h-1m-28-53v-1l2 1h-2"/><path class="st1" d="M-37 347l-16 2 7-10 9-12 1-6-4-10-3-3-13 5h-1l-9-11h1l12-3 6-13-1-14 1-8v-1l-6-9h2l12 5 6 7-14 8 11 8 1 10 9 7-2-5 8-3-2-12 5 4 6 4-8 5 6 5-6 4 2 3 1 2 2 2-6-1 1 7-1 2-7 11-9 18 16-7-5 15-12-6zm11-35l4-6-3-1-1 7zm-18-6l6-9-14 3 8 6zm15-48l1-1 16 5v2l-3 6"/><path class="st4" d="M61 264l-9-2-2-1 7-2 6 5"/><path class="st2" d="M56 271h-6l-13-5 3-2 11-3h1l9 2h6l3 1 1 8-6 3"/><path class="st4" d="M81 335l-9-19 2-17-7-14 7-6-4-8-1-7h-2v-1l14 3 14-3 1 1h-3l-1 7-4 8 7 6-6 13 1 18-9 19m-168-71h13v1l-8 3m15 30l-15-3 6-6 2 6 12-4 1-5 1-1 3-8 2-3 6-8 3-4v2l-1 8 1 14-6 14-4 1"/><path class="st2" d="M-15 308l-1-1-1-3-3-4 6-3-6-4v-1l8-5-5-3-3-3-1-1 1-2 4-8 3-6h1v12l9-1-3-3 4-1h1l10 1 3 10-1 1-5-1-7 6v1l-2 11-8 2 4-8-4 3-2 11"/><path class="st4" d="M-13 274v-11l14 9h-5l3 4-11 1"/><path class="st2" d="M12 329l-6-1v-10l-10 3 7-10-1-6 9-6 9-11 6-12-5-8-1-1 6-4 8 3v1l-5 8 15-1-2 3-2 4-1 5 1 12 14 2 8-1 1-2v-2l4-10h1l7 13-2 18h-1l-3-7-11 11-12-2 1 5 1 3h-2l-6-2-4-2-8-10-6 8 7 10-4-2-8-3-4 5"/><path class="st1" d="M39 299l-1-12v-1l1-5 2-4 1-2-15 1 6-10 5-1 1 1 11 4h7l8 4 6-3 4 8v1l-7 6-4 9-1 2-1 3-8 1"/><path class="st2" d="M-96 282l2-14 1-1v1l1 3v1l-1 6v1l-2 3"/><path class="st3" d="M-95 286l1-8 1-6v-1l1-4 2 4-1 4-2 20v4h-1"/><path class="st2" d="M-76 290l3-5h-9l-1-1 5-2v-2l5 3-1-6-2-3v-1l5-3 1 1v5h1l7-3-2 4 8-2-2 2-4 6 2 3-1 6-13 4-2-6zm12-8l2-3-4 1 2 2z"/><path class="st7" d="M-92 275l2-4v-1 1l2 4 3 7-6 2"/><path class="st6" d="M-90 293l-4 3 2-21h1l1 8 4-2h2l1 3-3 1 1 5v2l-3 1v8l-1 1"/><path class="st4" d="M-27 326l7-10v-10l5 1h1l2-10v-1l7-4-4 9 5-1 2-11 1-1 7-7 5 1 15-6h1l-6 13-9 11-9 5 1 7-6 7 9-2v10l7 2h-1l-2 8h-1l-17 3-3-15-6 2-4 11-16 8-1 1"/><path class="st5" d="M-96 297v-16l2-3h1l-1 8-1 11"/><path class="st3" d="M-68 279l7-1-2 6"/><path class="st1" d="M-89 292l4-1h1l-2-4v-1l3-2h12l-4 6-6 5v7l-1 5"/><path class="st4" d="M-94 307l-2-10 1-11h1l1 13 5 10v-3h1l3 9v3"/><path class="st7" d="M-88 311l-6-11v-5l4-4 1 1 1 10 1 4-1 6"/><path class="st2" d="M-88 307v-1l-1-4v-11l7 14-1 10v1h-1l-1 1"/><path class="st3" d="M-84 318l2-1v2"/><path class="st3" d="M-70 323l-13-5 12-11-7-8-4-3v-1l16 2 11 3v1l-9 1 8 10-8 13"/><path class="st4" d="M-84 316v-1l1-10 1-3v-7l1 1 3 3 8 8-12 11-1 1"/><path class="st5" d="M-53 299l17-3v1l-8 10m16 6l3-9 5 2-7 8"/><path class="st4" d="M-53 337l-7-3v-1l6-5-3-14v-2h1l13-5 4 4 4 10-1 7-9 11"/><path class="st1" d="M35 333l-8-4-6-10 7-8v-1l9 11 3 2 6 2h1l2 6-6 12"/><path class="st6" d="M-61 336v-1l1 1m-15 1l-8-19v-1h1v1l12 4 5 2 8-12 1-1 3 17-6 6-1 2-9 7"/><path class="st5" d="M47 326l-1-3-1-5v-1h1l12 2h6l4 8-13-4-4 5-2 3-1 1"/><path class="st0" d="M48 362l-6-10v-10l6-12 2-2 5-6v-1l12 5 2 2 3 6 1 3-11 12h-8v5l-4 6-2 2"/><path class="st2" d="M-25 353l4-15 4-11 7-4 3 17-4 8-3 2-10 3h-1"/><path class="st1" d="M13 329l4-5 9 4h-1v1l-15 9"/><path class="st5" d="M26 343l-6-4 4-10 1-1v-1l3 1 7 5-8 10"/><path class="st0" d="M-31 376l5-13 9-8 3-6 3-2 7-3 6-6 6 5 1-6 1-1 16-8-4 11-1 8-6 5-13 1-12 11 11-3 1 2 2 9v1h-5l-1 2-21 4"/><path class="st2" d="M-74 346l-1-5 1-1 1 6h8l1-3 3-8 1-2h1l7 3 8 3-8 10-14-2-13 10m99-9v-2l1-8 6 4 8-10 8 10v1h-1l-9 5-12 10"/><path class="st3" d="M-71 347l-3-1-1-5v-6l6 6 9-7-3 9-2 3-1 1h-5"/><path class="st1" d="M-7 339l10-1-7 7-8 3m13-10l9-2-2 8"/><path class="st1" d="M2 338l1 1H2v-1 1H0"/><path class="st5" d="M58 361h-1l-3-6-1 1v-2l1-6h8l11-12 1 14v1l-12 11"/><path class="st1" d="M31 355l9-4-8-4 10-4v-1h1v10l6 9-1 1-15 3"/><path class="st5" d="M-42 368l-10-18h-1l-13 11-12-3-1-2 1-1 12-9 14 2 15-2 13 6 11-3-4 7-8 7-5 13m19-12l13-13h13l5-5 1-1 1 12-5 7-1-1-8-8-6 7H1l-13 3"/><path class="st0" d="M-71 376h-4l-3-19 12 3 13-11h1l11 20h-16l-9 8"/><path class="st2" d="M46 370l-9 2-4-8h1l14-3h1l6 4v-5h7l12-10 4 16h-2l-7-3-4 8-9-4-5 6"/><path class="st1" d="M18 378h-8l-1-1-1-5-4-6-2-3-1-1 7-8 9 9v1l4 5-1 1-3 4 2 2 3 2h-4zm-10-8l7-6-7-1v7zm40-8v-1l1-1 5-7v1l4 6 1 1h-3v6"/><path class="st3" d="M24 365l-4-6 12-4-4 14"/><path class="st6" d="M21 368l-1-11 5 7 3 4v9"/><path class="st3" d="M81 399v1-1l-4-6-9 4-1-7-10 5-3-3v-1l-4-11 10-6v-1l3 4 5-1 4-3 7-8 2-3v-1l2 4 7 8 4 3 5 1 3-4v1l11 6-5 11v1l-3 3-10-5-1 7-9-4-3 5v2"/><path class="st5" d="M7 375l-2-1H1l-1-2h3l-1-9 3 3 4 5 1 6m-82 12l-3-14h4l5 1 9-8h16l-2 6-3 15-11-3-7-7-7 10v1"/><path class="st2" d="M-47 389l3-15 2-7 12 8 7 3 3 4h-6v-1l2-1-10-1-14 12m74-7l-7-6h-1v-1h1l-2-2-1-1 4-6 3 10 11-5-1 1-2 7-3 6m-31-13l2-2h2l1 1 2 1 1-1 3 2v4"/><path class="st2" d="M45 392l-8-9-2-5-3-5 3-1h2l7 8 1 9 9 1 1 2v1l-5 14"/><path class="st6" d="M1 374l-1-1h6l-1 1-1 1"/><path class="st3" d="M3 380l-8-1-7 2-9 1-3-4 22-4 9 4v-4l1 1 1 1 1 1 5 4 2 1v1"/><path class="st5" d="M42 404l-6-5-6-4-3-8v-1l3-6 3-8v1l4 9 8 9 6 16"/><path class="st4" d="M17 383h-1l-7-7 9 1h1l8 7v7"/><path class="st1" d="M-72 389v-1l7-11 8 8 11 3-1 2-2 2-4 4-2 1-13 5"/><path class="st3" d="M-41 394h-1l-6-4 14-12 1 1 1 3 7 7v1h1l-1 1-11 3-3 1"/><path class="st6" d="M-35 378h1l11 1h2l-5 3h-3l-4 1"/><path class="st7" d="M-1 383l1 1-1 1"/><path class="st7" d="M33 437l6-16-4 1-10 3-5-3-13-1H5v-1l8-1-14-4v-1h4l12 2 10-6 4-6-1-7-3-5-14-8H1l-6 1-2 5h-1v1l-1 5 3 9 8 8h-3l-2 1-12-12-4-12 2-7-4-1-4 8v1l-8-10h12l9-1 7-2 8 1 14 3 9 7-1-5 1-1 2 3 3 9 1 1h-1l7 18 1 1 3 6v2-1l-1 19-6 3-2-7zm-37-26l-4-5 1 3 3 2zm-6-10l1-16-3 8v4l2 4z"/><path class="st6" d="M5 421l-6-2h-2l-1-1-9-7-10-17-2-4h-1l4-8 1-1 6 1-2 8 3 12 11 11h2l2-1 3 2-3 1 15 3v1l-11 2m1-27h4v-4l-4-2-4 1v-3l-2-2h-1v-1h12l15 9-4 3-11 9-5-10zm7 6l3-4h-2l-4 1 3 3zm5-4l1-1 1-1-2-1v3zm-3-1h2v-2l-4-3-1 3 3 2zm10-3h1l-1 1"/><path class="st3" d="M-13 398v-6l4-9 1-1v1l-2 22"/><path class="st3" d="M-1 414l-6-4-3-6 1-1 9 11"/><path class="st3" d="M-11 404l1-3 1 3h-1"/><path class="st8" d="M-9 383h1l-2 20h-1l2-20z"/><path class="st4" d="M-9 391l1-1 2-5 6-2v1l-2 6-1 3"/><path class="st5" d="M-2 401l-2-8v-1l1-2 2-6v-1h1l3 2v4l-2 4 3 4-1 1H1l11 12h-2"/><path class="st1" d="M3 393v-3l-1-1v-1l4-1 5 2v6H7"/><path class="st2" d="M-67 421l-1-20 13-4 2-2 4-4 2-2 6 4 2 1 1 1-8 9-2 9h-2l-4 1-1 1-7-6 2 13h1l-7 5"/><path class="st9" d="M0 394l2-5 1-1 1 5v5"/><path class="st10" d="M14 395l-3-1 1-6 1 1 1 1 4 3v4"/><path class="st11" d="M17 394l-6-5h2l9 5-2 2-3 1"/><path class="st4" d="M-28 394h-9l12-5 3 5"/><path class="st0" d="M3 415l-2-2-8-7-3-10 2-6 5 2 2 9 11 8h1l6-1 11-11 1-2v2l1 7-4 7-4-1-7 7"/><path class="st11" d="M-1 398l2-1h2v-5h1l3 2 5 9 2 3 4 2-7 2"/><path class="st10" d="M14 407l-3-3-1-1 11-9 4-3 1 1 3 5-12 12"/><path class="st1" d="M-34 400l-4-4-1-1-1-1h1l2-1h10l-6 7"/><path class="st0" d="M-49 413l3-10 13-1-1-2 6-7 5 1 11 16-1 1-2 8h1l-1 1v-1h-1l-10-10-12 6-6 11"/><path class="st5" d="M-39 395l1-1 5 5 1 4-15 1"/><path class="st7" d="M8 397l6-2 4 1-5 5"/><path class="st3" d="M43 475l8-6-10-16-6 14-6-13 3-12-5 7v1h-1l-3-10-3-8-10-2H5l2-10 13 1 5 4 10-3 2 7h-4v3l1 5 2 6v1l5 7 6-10-6-2 5-10-4-8-4-5v-2l-8-20 1 1 6 4 5 4 4 17h-1l13-4-1 3-1 6-1 3h-1l-6 2 7 12 1 20 3 14-1 1-7 4"/><path class="st1" d="M45 420l-3-17 8 3h1l-5 14"/><path class="st5" d="M0 478l-1-8-5-3-14-9h-1l-5 6-2-1-9-10-1 4-9-17 1 10 1 4-5 21-9-11 4-9-2-14-4 3v-11l-6 7v-19h1v5l6-4-4-15 1 1 8 6h1v-1l4-1h1l5 12 5-9 13-7 12 11h-1v1l-15 1-2 14 7-4h1l14-2 7 1 8-1 6-1-1 2-6 6-10-5v6l-7-1 2 14v1h9l1 10 13 10v4h7l-6 9-4 4"/><path class="st1" d="M-16 419l3-10v1l11 8-13 1"/><path class="st11" d="M14 417l1-1 7-6h5l-12 7"/><path class="st2" d="M-24 431l4-6 4-6 1-1 12-1 3 2-3 5 8 5 1 1-9 1-7-1-15 2"/><path class="st1" d="M-33 436l3-15 15-2-4 7-5 5v1l-10 5"/><path class="st4" d="M5 430l-9-5 3-7 6 2h3l-2 10v1"/><path class="st6" d="M33 437l-1-6 1-3h3l-2-6 6-2v1l-6 18m1 4l5-2 1-21 1 1 5 9-5 9 6 1-7 12v1"/><path class="st0" d="M12 472l-1-1-12-9-1-1-1-9h-9v-1l-1-16 6 2 1-6 10 4 6-6 11 3 3 8-6 6 4 13-4 5v1l-6 6v1m-77-20l-2-13v-1l7-8v13l4-3 2 15-4 9-1 1"/><path class="st2" d="M-37 461l-9-6-1-5-1-12h1l9 17 1-4 10 13"/><path class="st5" d="M17 446l7-7v1l3 9 1 4-6 6"/><path class="st4" d="M21 501l1-15 7-9-6-11 4-14-1-3 7-9h1-1l-3 13 5 12 6-14 11 18-7 6 6 5 7-4h1v15l-20-2-1 4-7-5-3 11-4-9-1 13"/><path class="st1" d="M-36 491l-15-17 5-20 9 6 1 2 3 3 5 6 3 3 11 18-12-5 1 9"/><path class="st2" d="M58 491l-1-15h1l16-23v1l3 8-1 3-17 27"/><path class="st1" d="M-3 479l-13-2 7-8-13 5v-16l2-1 14 9 6 4 1 9h-4"/><path class="st4" d="M-10 503l-5-10-1-1v-1l-10-16-3-4-5-5-5-6h2l9 3h2l5-6v16l14-5-1 1-6 8 11 1 1 1 1 1-5 8 7 13-11 3"/><path class="st1" d="M12 485l5-9-6-1v-4l7-8v1l2 7v2l1 7 2 7m0 0h-1l1-2v2"/><path class="st2" d="M21 501l-5-6-6-5-9 11H0l-7-13 5-8h-1l-1-2h4l9 8 3-2 10 2-2-6-1-7v-2l-2-7 4-6 6-6v1l-3 13 6 11-7 10-1 15"/><path class="st5" d="M-26 495l-1-9h1l11 5 1 2-10 2"/><path class="st4" d="M1 501l8-12 1-1 7 8h-1l-16 6"/><path class="st2" d="M-16 512l-20-21 1-1 10 4 11 18 1 1"/><path class="st1" d="M-14 513l-12-18v-1l12-2 4 11h1v3l-1 9"/><path class="st6" d="M6 568l1-12-10-9-1 9-9-16-2-13 3-9v-1h2-1l8 1 4-7 7-2 9 1-2-3 13-5v-4l6-3 8 8-5 7-3 9v1h-1l-1 1-1 1-4-9h-2l-3 1 1 10-7-6-7-3v11l-4-2-2 6-8-1 12 14-8 2 10 4h1l7 3v1l-5 12 7 3-3 7"/><path class="st4" d="M42 520l2-5-1-6 8-5h3l11 2v1l-12 2-2 2 13 2 1-7 1-2v-1l7 10-7 7v-1l-9-2-12 2-2 1"/><path class="st4" d="M44 518h1v1"/><path class="st2" d="M50 512v-1l2-2 12-3h2l-1 8"/><path class="st7" d="M-12 519v-1l5-11 9 4-4 8m82 48l-6-9-5-4h-1l-3-4-1-1-3-8-5-2-12-8-4 2-2-10-6 2 3-6-3 1 5-11 1 2v1l1 2 1 2v1l1 4 1-1 3-3 1 4h5l6-5 9 2 4 1 3-3v5l7-1 1 1 2-1 6 1v-5l3 3 4-1 9-2 6 4 5 1 1-4 3 2v1l1 1 1-4v-1l1-2v-1l1-1v-1l1-2 5 11-3-2 3 7-6-2-2 10-4-2-12 8-5 1-3 9v1l-4 3-1 1-5 4-6 9h-2zm-5-19l6-2v-1l7 3 5-3 9-13-7-7-5-2-2 4-6 1h-1l-6-1-2-4-6 3-6 6 9 13 5 3z"/><path class="st3" d="M-4 546l2-1 7-3-12-14h1l9 1 1-6h1l3 1v-10h1l7 3 6 5v-9l3-1h3l3 8h1v-1h1l3-2 1-1-3 8 10 14h-3l-14-5-12-1h-2l-1-1H3l-2 5h15l-2 8-4 5-1 1"/><path class="st6" d="M44 518l14-2v1l-7 4-5 2m-3 15l-11-14 7-2 2 10 3-1 13 9h-9m26 9l-5-3-9-14 6-7 7-3 2 4 6 1 6-1 2-4 7 3 6 7h1l-10 14-5 4-7-4-6 4"/><path class="st4" d="M16 553l-8-4h1l5-5 1-7H0l3-7 9 1h2l8 9v1l1 1v1h-1l-5 10"/><path class="st1" d="M12 531h3l13 1v1l-6 8v1"/><path class="st0" d="M60 553v-1 1M32 565v-10l-9 3 3-11-4-5-1-1h1l5-9h1l2 5 2 2 10-2h1l5 2 14 9h2l1 1 1 1h-1l-5 3 8 6v2l-7 9-2 3-1 1h-1l-8-2-9 2h-3"/><path class="st5" d="M29 538l-3-6 17 5-11 3"/><path class="st4" d="M62 549l-14-9v-1h8l6 1 3 9v1"/><path class="st1" d="M23 558l-4-3-3-2v-1l6-11h1l4 5-3 11v1"/><path class="st7" d="M4 567l-1-10-8-1v-1l1-10 1 1 11 10-2 13"/><path class="st2" d="M58 553h2l5-4v1l4 4"/><path class="st3" d="M20 578l-5-3 2-7-6-3 5-13 2 1 2 1 4 3-3 7v1h1v5l-1 7-1 1"/><path class="st5" d="M68 560l-10-7 2-1 8 1 1 1-1 6m-36 13l-8-2-3-6-1-2h8l-5-5v-1h1l9-3v10l4 9 1 1-2 6"/><path class="st1" d="M67 561v-1l2-6 6 4-7 10"/><path class="st6" d="M-6 555l10 1 1 12"/><path class="st4" d="M20 563l3-6h1l5 5 1 1-10 1m56 8l-8-4v-2l6-9 7 11h-1l-1 4-1 1-2 1"/><path class="st5" d="M60 570l8-10 1 7v1h-1v6"/><path class="st2" d="M20 578v-1l1-7v-5l4 5 3 6 1 4"/><path class="st6" d="M81 580l-4-7 1-2 2-4h3l2 4v2l-3 7"/><path class="st1" d="M58 574h-1l4-5 6 4 1-6 9 4v3l-10 3m-4 12v-1l-1-1-6-2-4 3-9-3 2 5-3-1h-3l-4-1-3-4-2-4h-2v-1l-1-3-3-6 8 2 4 7 2 3 5-3 29 4 9 6v1l-10-1-1-1-2-1-1-1-1 6M51 588h1"/><path class="st5" d="M40 574v-1l9-2 9 2-8 5"/><path class="st1" d="M37 575l-1-2h4l12 4-2 1-7 1"/><path class="st0" d="M41 599l-3 1 1-3-4 1 2-3-6 1 3-5-2 1v-10l4 5 1 1h-1l2 5 7 4v1l-4 3m19-4h-6v-4l-7-2h1l3-3 5-4 7 3 1 1 1 2 1-5 3 1 2 2h1l1 5 1 8-1-1-7-4-1 5"/><path class="st1" d="M65 605l10-5h1v11l-3-5-3 6-1-4-1 5"/><path class="st0" d="M207 192l20-12 13 1v1l-5 1-7 2-2 1-11 6-8 1m34-11h-1v-1h1l2 1"/><path class="st0" d="M266 205l-3-2-1-1-6-10-6-4-2-2v1l-4-3-4-3 12 1 6 4 6 9 3 11"/><path class="st1" d="M228 185v-1l7-2 6-1 5 4h-9"/><path class="st2" d="M254 192l-4-4v-1l7 4-1 3m-20-5l-12-4 4-1h17l4 2-10 4"/><path class="st3" d="M247 196v-2h1l-6-1v-2l-4-1 10-5 7 6 1 2-1 2-5 1-4 3"/><path class="st4" d="M263 217l-1 1h-1v3l-5 3v-7l-1-3h-4l-9-2-7-6-16-9-3 15-3 2-15 1v10l-1 1-14 3 6-9-5 1 9-11 2-3 4-4v1l3-2-3 10 17-15-9 2 7-8 11-7 11 4 3 1 4 1v3h6l-1 2v1l2-1h5v-2l2-3v1l2 7-3 2 5 1-3 2-2 8h9l1 24h-1"/><path class="st5" d="M198 204v-4l9-8 9-1-7 8h-1l-4 4h-2v1l-4 1"/><path class="st2" d="M254 212l1-1 2-8 2-2h-6l1-1 4-2-2-6 1-1 6 11 1 6 1 3v1m-34 10l2-5 4-4-22-1 3-16 17 9 7 6 9 2v1l-7 2-11 3v10h-1"/><path class="st3" d="M198 213l3-10 2-1 5-4h3l4-1 4-1-21 19"/><path class="st0" d="M169 229l14-15 15-15 1 6-3 3-2 3-8 9-8 6-9 4"/><path class="st5" d="M266 244l-1-4v-5l-1-23-1-4-1-7 5 4 2 16v20l-2 5"/><path class="st1" d="M182 244l5-7v-1l8-10 1-1 1-1 1-1v1l13-10 1-1 3-2 25 1-6 5-2 5 1 6v7l-10 5-6 12-2 2v-1l-9-4-16 9-8-14zm21-5l-3 3 14-2 1-2-4-9-8 10z"/><path class="st3" d="M245 291l2-4v-1l-2-1h-2v-1l-3-1-1-2-5 3 2-8 1-3-3-2-1 5-1 1-5-2 1 3-7-1h1-1l5 6-3 3v1l-1-2-3-8-2-3-6-7-2-2-1-1v-2l15-3h1v-10l5-3 7-2-4-10h1l11-6v-13l7-2h5l1 3v7l3-3 1-3 3-1 2 19v4l-3 12h-4l1 5-11 16v1l-6 4h1v1h2l1 3v3l2 1-1 5v2l-3-1zm-1-24l2-2h-7l5 2zm-3-6l10-4 8-6-5 1-7 1-7 7h1-1l1 1zm18-21l-3-3 5-1-6-1 3-2h-2v-1l-2 5-1 1 6 2z"/><path class="st2" d="M197 224v-10l15-1h2l-17 13"/><path class="st4" d="M232 229v-10l13-4v13l-12 7v1-1l-1 1"/><path class="st3" d="M174 264h1v1m-46 1"/><path class="st3" d="M9 273l-10-1h-1v-1l-11-7v-2l-7-17-1-1-4-7v-1l4-7h-1l-6-10 5 1 8 6 12 15-6-1-3-3-3 13 9 2 2 11 12 7 9 6-1-2-2-4 3-9-1-2-1-2-3 7-1-1-4-7-1-1 9-1 17 1 48-5h2l48 5h26l-1 1-3 6-1 2-4-7-1 2v2l2 9-1 4-1 2 8-6 13-7 1-11 10-2-3-13-3 3-7 1 12-15 8-6 6-2-1 1-6 10h-1l4 7 1 1-5 7-1 1-7 17h1l-1 1v1l-10 7v1h-2l-9 1-3 10-16-7 6-8-5-3-7 2-5-1v1-1l-2-1-11-3-2-1-3-1-4 3h1l-2 1h-6l-13 2v1h-1l-14-3h-6l-2-1h1l-3-3-4 1-1 1h-1l-11 3-2 2h-4l-8-2-5 3h1-1l6 9-16 6"/><path class="st8" d="M82 251h-1 1"/><path class="st2" d="M182 229l1-1 13-3h2l-11 12"/><path class="st1" d="M161 237l8-8 8-3h1l-11 15-1 1-12 4"/><path class="st5" d="M202 238l10-11 4 11-1 3-17 3"/><path class="st6" d="M252 239l2-2 2-7h1v2l3 1-2 1 5 1v1l-5 1 4 5"/><path class="st2" d="M222 240l10-5 1-1v1l4 9-1 1-11-6v9l-10 5"/><path class="st6" d="M145 276l1-3 1-4-2-9v-1l2-3v-1l4 7 4-7v-1l10-13 1-1 5-1 4-5 4 16h-1l-9 2-1 11-1 1-12 6-11 9"/><path class="st4" d="M214 253l2-1 8-5 1-9 12 6-7 3-6 3v10h-1m24 21l-1-3h-6l8-5v-2l11-15-1-4-6 6-11 3-2-1 7-8 8-1 8-1 3-11v-1l1 1 1 5-6 14-5 10v2l-1 1h-1v-2l-1 2v1l-1 3-4 7"/><path class="st3" d="M155 254l-1-9 1-1 12-4-12 15"/><path class="st4" d="M182 243l1 1 8 13v1l-17 5"/><path class="st2" d="M146 255l8-11 2 10v1"/><path class="st5" d="M189 294l-8-2 2-12h-1v-2l-5-8 13-13 16-9 10 5-2 1v1l-13 5-5 6 14 8-11 8-1 11-12 9"/><path class="st2" d="M213 254h1l1-2v1l10 7-18 3"/><path class="st1" d="M187 353h-1v-1h2l-1 1m28-53h-1l1-1v1"/><path class="st1" d="M182 337l15 8-9-19-7-10v-3l1-6h-6l1-1 2-3 2-3-6-4 6-4-8-5 5-5 5-4-1 13 8 2-2 6 9-7 1-11 10-7-13-8 5-7 15-6-1 2-5 7v2l1 8-1 14 6 13 13 3-10 11v-1l-13-4-3 3-4 10v6l10 11 7 11-16-2-13 6-4-16zm6-25l-1-7-3 1 4 6zm18-6l8-6-14-3 6 9zm-32-42v-2l16-5 1 1-14 12"/><path class="st4" d="M105 259l8 2-2 1-9 2h-3"/><path class="st2" d="M91 272l2-8 2-1h6l10-2 11 3 3 2-13 5-6-1-9 5"/><path class="st4" d="M236 265v-1h13l-5 4m-29 32l-7-14 1-14-1-8v-2l3 4 7 8 1 3 4 8v1l1 6 12 3 2-6 6 6-15 3-11 3"/><path class="st2" d="M174 297l-1-1-4-2 4 8-7-2-2-11-1-1-7-6h-5l2-10 10-1h5l-3 4 9 1v-12h1l3 5 4 9 2 2-1 1-4 2-5 4 8 5v1l-5 4 5 3-2 4-2 2-1 2h-1"/><path class="st4" d="M174 277l-10-2 2-3h-4l13-9v14"/><path class="st2" d="M149 329l-4-4-8 3-3 1 6-10-6-7-8 10-4 2-6 1-1 1v-4l1-4-11 2-12-12-3 8h-1l-1-18 6-14 1 1 4 10 1 2 1 2 7 1 14-2 2-12-1-5-3-4-1-3 15 1-6-9 8-3 6 4v1l-6 8 6 12 9 11 10 6-1 6 6 10-10-3v10l-6 1h-1"/><path class="st1" d="M100 300l-1-3-1-2-4-10-6-5-1-1 5-8 5 3 9-5 6 1 12-5 5 1 6 10-15-1 1 1 3 5 1 4v1l-2 13-14 2"/><path class="st2" d="M256 279l-1-1v-6l-1-1 1-4 1 1 2 13-1 1"/><path class="st3" d="M255 299v-4l-1-20-2-4 3-4v5l1 6 1 8-1 13"/><path class="st2" d="M236 296l-12-4-2-5v-1l3-3-5-6-1-1 8 1-2-4 7 3 1-5v-1l6 3-1 1-2 3-1 6 5-3v2l5 2v1h-10l4 5-2 6h-1zm-10-14l2-3h-3l1 3z"/><path class="st7" d="M248 282l3-7 1-5 1 1 1 4-1 9"/><path class="st6" d="M251 301l-1-8-3-1v-2l1-5-3-2 2-2h1l4 2 1-8h1l2 21-3-3h-1v8"/><path class="st4" d="M198 346l-16-8-4-11-6-3-2 16-17-3h-2l-2-8 6-2 1-10 8 2-5-7v-1l1-6-9-5-9-11-7-14 1 1 15 6 5-1 8 6v2l2 11 5 1-4-9 7 4h1l2 11 6-1-1 1v9l7 10 10 20"/><path class="st5" d="M256 286l-1-8h1l2 3 1 16h-1"/><path class="st3" d="M223 279h7l-4 5"/><path class="st1" d="M244 302l-1-6v-1l-5-5-5-6h12l3 2v1l-2 4h2l4 1-8 15"/><path class="st4" d="M246 315h1l2-9h1v3l5-10 1-13h1l2 11-3 10-10 11"/><path class="st7" d="M250 310l-1-4 2-4 1-10v-1l4 4v5l-6 12"/><path class="st2" d="M247 316h-2v-1l-1-10 7-14 1 11-2 4-3 10"/><path class="st3" d="M245 317l1 1-2 1"/><path class="st3" d="M218 313v-1l9-10-9-1v-1l11-2 15-3v1l-3 3-7 8 12 11-14 5-5 2"/><path class="st4" d="M245 318l-12-11 7-8 3-3 1-1 1 6v4l1 10v4"/><path class="st5" d="M199 297l-1-1 18 3-1 1-9 7m-24-1l6-2 2 9-1 1"/><path class="st4" d="M198 328v-7l3-10 5-4 13 5v2l-2 14 5 5v1l-7 3-8 2"/><path class="st1" d="M73 350l-1-13-1-3-3-5-1-2-3-7h-7l12-13h1l3 9 8 18 8-18 4-9 13 13h-7l-4 7v2l-4 6-1 2-1 13h-1l-7-12-7 12m39-19l2-6h1l6-2 3-2 9-11 1 1 7 8-7 10-7 4-8 10"/><path class="st6" d="M223 336l-1-1h2l-1 1m0 0l-2-2v-1l-5-5 2-17 1 1 8 12 5-2 12-5h2l-1 1-8 18-6 6"/><path class="st5" d="M114 331l-2-3-5-6-13 5 4-8h7l12-2v-1 2l-1 5v2l-2 7"/><path class="st0" d="M113 361l-5-7v-5h-8l-11-12 1-3 4-6 1-2 12-5v1l5 6 2 2 6 12v1h1v1l-1-1 1 9-7 9v1"/><path class="st2" d="M187 353l-11-3-3-2-4-8 3-17 7 4 4 11 4 14v1"/><path class="st1" d="M137 329v-2l8-3 5 5 3 8"/><path class="st5" d="M135 343l-8-10 8-5 3-1v2l4 10-7 4"/><path class="st0" d="M164 375l-1-2h-5l1-2 1-8 1-2 11 3-11-12h-14l-6-6v-7l-4-11 15 8 1 1 2 6 5-5h1l6 6 7 3 3 2 3 6 9 8 5 13-9 3"/><path class="st2" d="M228 347l-13 2h-1l-7-10 8-3 7-3 1 2h1l2 8 2 2v1h7l1-6h1l-1 5 5 12m-111-9h-1l-9-5-1-1 9-10 8 10 6-4v10-1 11"/><path class="st3" d="M228 347l-1-1-2-3-3-9 9 7 6-6v5l-1 7h-3"/><path class="st1" d="M166 345l-7-8 11 2 5 10"/><path class="st1" d="M152 336l9 2-7 6"/><path class="st1" d="M159 339l1-1v-1l1 1 1 1"/><path class="st5" d="M88 351v-1l1-14 11 12h9v7l-4 6h-5"/><path class="st1" d="M114 362l-1-1h1l6-9-1-10 1 1 11 4-9 4 10 4-3 10"/><path class="st5" d="M188 363l-9-7-4-7 12 3 12-6 16 2 13-2 12 9 1 1-1 2-12 3-13-11h-1l-9 18-12 8m-32-14l-6-7-9 8v1l-5-7v-12l1 1 5 5h14l12 13 1 1"/><path class="st0" d="M219 369l-2-1h-13l10-19h1l14 11 12-3-3 19h-5l-5 1"/><path class="st2" d="M106 367l-9 4-3-8-8 3h-1l3-17 1 1 12 11 3-1h3v5l6-4h1v-1l15 4h1l-4 8-9-2-5 3"/><path class="st1" d="M143 378h-2l2-2 2-2-3-4-1-1v-1l5-4-1-1 10-9 6 8-1 1-2 3-4 6-1 5-1 1h-9zm11-8l1-7-8 1 7 6zm-48-4v-5h-3l1-1 5-7v1l4 6 2 1-1 1-8 5"/><path class="st3" d="M131 355l11 4-4 5-4 4"/><path class="st6" d="M134 368l3-4 5-7-1 11-6 9"/><path class="st5" d="M154 371l4-5 2-3h1l-2 9h4l-1 2h-5l-2 1-3 2m81 12l-6-10-7 7-11 3-4-15-1-6h16l8 8 5-1h5l-4 15"/><path class="st2" d="M197 379l-11 1 2 1v1l-6-1 3-3 8-3 11-8 2 7 3 15 1 2m-78-10l-3-8h1l9 4 3-10 4 7v1l-2 1-1 1h2v1h-2l-6 6-2 3m19-11v-1l3-2 1 1 3-1 1-1h2l1 2-11 5"/><path class="st2" d="M108 393h-1v-1l1-2 9-1 2-9 6-8h2l3 1-2 5-2 4-8 10-6 15"/><path class="st6" d="M157 374l-1-1h6l-1 1-3 1"/><path class="st3" d="M145 382l2-1 5-4 1-1 2-2v4l9-4 22 4-3 4-9-1-7-2-7 1-14 3"/><path class="st5" d="M117 391l8-9 4-10 1 1 2 7 3 6v1l-3 8-6 4-5 5-9 3"/><path class="st4" d="M136 384l8-7 9-1-1 1-6 6-11 8"/><path class="st1" d="M217 397l-2-2-4-3-2-2-1-2h1l10-3 8-8 7 11-4 14"/><path class="st3" d="M199 394l-12-4v-1h1l6-7 2-3v-2l1 1 13 12-6 4h-1l-2 1"/><path class="st6" d="M191 382h-3l-5-3h2l12-1v1l-2 3"/><path class="st7" d="M163 384h-1v-1h1v1"/><path class="st7" d="M122 441l-2-18v-2l3-6 1-1 7-18v-1l3-9 2-2h1l-1 5 9-7 15-3 7-1 7 2 9 1h12l1 1-9 9v-1l-4-7h-4l2 7-4 12-12 12h-2l-3-1 8-7 3-10-1-5-1-1h1l-3-4-6-2h1l-11 1-14 8-3 4-1 7 4 6 10 6 12-2h5v1l-15 4 8 1v1h-2l-13 1-5 4-10-3-4-2 6 16-2 7-6-3zm44-30l3-2 1-3-4 5zm7-10l2-4v-5l-3-7 1 16z"/><path class="st6" d="M146 419v-1l15-3-3-1h1l2-2 2 1h2l11-12 4-11-2-8h6l4 8h-1l-1 4-11 17-9 7-1 1h-2l-6 2m-17-26l-4-3 15-9h12l1 1h-1l-3 2v2h-3l-5 2v4h4l-5 10-11-9zm10 5l2-3-4-1h-2l4 4zm-6-4v-3l-2 1 1 1 1 1zm1 0l3-1 2-1v-4l-5 3v3zm-8-4h-1 1v1"/><path class="st3" d="M170 383v-1l1 1 5 9v6l-4 7"/><path class="st3" d="M163 413l9-10v1l-2 6-6 4h-2"/><path class="st8" d="M171 383l2 20h-1l-2-20h1z"/><path class="st3" d="M172 404l1-3v3h-1"/><path class="st4" d="M164 390l-2-7h1l5 2 3 6-6 2"/><path class="st5" d="M150 410l11-12h-1l-2-1 4-4-3-4v-4l4-2 2 7 1 2v1l-1 8-12 9"/><path class="st1" d="M151 395v-6l6-2h3v3l-1 3-4 2"/><path class="st2" d="M222 422v-1l3-12-8 5h-1l-4-1h-1v-1l-3-8-8-9 1-1 2-1h1l5-4 3 2 3 4 2 1 13 5v20l-1 6"/><path class="st9" d="M158 393l1-5 1 1 3 4-4 5"/><path class="st10" d="M144 393l4-3 1-1 2-1v6l-3 1-4 2"/><path class="st11" d="M143 396l-2-2 9-5h1l-6 4v4"/><path class="st4" d="M81 502l-12-2-10-8 1-1 12 4h19l12-4v1l-9 8-12 2m-27-40l-1-19-8-14 8-1v-1l1-2 1-6 1-2-13 5 1-2v-1l5-13h-1 1l4-14h1l2 2 11-5 1 7 9-4 3 6 4-6 9 4 1-7 10 5 2-2h1l5 14 5 13v3l-12-5v2l2 6v3l8 1-8 14-1 19-2 16-17-23H74l-16 23m129-88h1l11 4h-14"/><path class="st0" d="M140 410l-4 1-4-7 2-9v1l12 11 6 2 12-8 1-9 6-2 1 6-3 10-8 7-2 1-12 3"/><path class="st11" d="M144 408l4-2 3-3 4-9 4-2v5h1l1 1h2l-11 12"/><path class="st10" d="M134 397h-1l1-1 3-4v-1l1 1 3 2 11 9-1 1-2 3-3 1"/><path class="st1" d="M189 394h13l1 1-2 1-5 4"/><path class="st0" d="M200 416l-12-7-10 10-1 1v-1l-2-8v-1l10-16 5-1 6 7-1 2 14 1 3 10-6 13"/><path class="st5" d="M194 403v-1l1-3 6-5v1l8 9"/><path class="st7" d="M144 396l4-1 6 1-4 5"/><path class="st3" d="M104 477v-1l2-15 1-19 8-13-7-1-1-3-2-6-1-3 13 4v-1l3-16 5-4h1l5-4 2-1-8 20-1 2-3 5-4 8 4 10-6 2 7 10 4-7v-1l2-6 2-6-1-2h-4l2-8 10 3 5-3 13-1 2 10h-5l-10 2-3 8-3 10v-1l-6-7 3 11-6 14-6-14-9 15 7 7-8 6"/><path class="st1" d="M117 420l-5-14v-1l9-2-4 18"/><path class="st5" d="M150 484l-6-9h7v-1l-1-3 13-10 2-10h9v-1l1-14-7 1v-5l-9 4-7-6-1-2 6 1v1h8l7-1 14 2h1l8 4-3-14-14-1-1-1v-1l11-10 13 7 5 9 5-12h1l4 2h1l8-6 1-1-3 15 5 3 1-4h1l-1 19-6-8v12l-4-2-1 13 3 9-9 11-4-21v-4l1-9-8 16-2-4-8 10-3 1-5-6h-1l-13 9-6 3v8l-10 10"/><path class="st1" d="M165 418l10-8v-1l3 10h-1"/><path class="st11" d="M135 410h6l8 7h-2"/><path class="st2" d="M172 430l-6 1-9-1v-1l8-5-2-5 3-2 12 2v1l5 5 4 6 1 1"/><path class="st1" d="M186 432v-1l-4-5-5-7 16 2 3 15v1"/><path class="st4" d="M156 430l-2-10h3l7-2 2 7-9 5h-1"/><path class="st6" d="M128 437l-6-15v-2l6 2-2 6h4v3l-1 7m-8 14l-7-12 6-1-4-10 4-8 1-1 1 21 6 2-6 10"/><path class="st0" d="M150 471l-5-6-1-1-4-5 5-13-7-6 3-8 11-3h1l6 6 10-4v6l7-2-2 16v1h-9l-1 9v1l-13 9-1 1m70-8l-3-9 1-15 4 3 1-13 6 8v1l-2 13-6 13"/><path class="st2" d="M199 452l2 3 8-17h1l-1 12-1 5-8 6-11 3"/><path class="st5" d="M135 453l1-4 3-10 7 6-5 14"/><path class="st4" d="M139 490l-5 9-2-11-7 5-1-4-21 2 1-15 7 4 7-5-8-6 1-1 11-17 5 14 5-12-3-13h1l7 9-1 3 4 14-7 11 7 9 1 15-2 2"/><path class="st1" d="M188 487l-11 5 11-18 3-3 4-6 3-3 1-2 9-6 5 21-15 16-11 5"/><path class="st2" d="M86 465l-1-3 3-8v-1l17 23-1 15-1 1"/><path class="st1" d="M59 492v-1l16-27 1-2-2-8-1-1h16v1l-3 8 1 2 17 27-1 1-12 4-9-1h-2l-8 1m92-17h-2v-9l6-4 15-9 1 1 1 16-13-4 6 7-12 2"/><path class="st4" d="M172 503l-11-2 8-14-6-7 1-1 1-1 12-2-7-7-1-2 15 6-1-16 6 6 1-1 9-2h2l-5 6-5 5-2 4-11 16v1l-1 1-4 10"/><path class="st1" d="M142 480l1-7-1-2 2-7v-1l7 8 1 4-7 1 6 8-12 3"/><path class="st1" d="M139 486l1-1v2h-1"/><path class="st2" d="M141 501l-2-14-7-10 7-11-4-13 1-1 5 6 4 6-1 7v2l-2 7-2 6 10-2 3 3 9-9h4l-1 2 5 8h-1l-7 13h-1l-8-11-6 6-6 6"/><path class="st5" d="M187 495l-11-2 1-2h1l11-5-1 9h-2"/><path class="st3" d="M39 518v-2l-1-1v-2l-1-2v-1l4-7-7-7-5 2-1 5-12 4 2 5-10-2-6 1v1H1l-7-4-5 10-1 2-5-9h3v1l4 1v-11l11-2h1l14-5 6 6 1-13h1v1l4 7 2-9h1l6 5 1-4 21 2 1 1 9 8 12 2 12-2 9-8h1v-1l21-2h1v4l7-5 3 9 4-8h1v13l1-1 5-5 14 5h2l11 2v11l3-2h3l-5 8-1-1-4-10-8 4v-1l-7-2-10 3 3-5h-1l-12-4-1-5-4-2-8 7 5 7-1 1v2l-1 1v1l-1 1v2l-1 5-2-3-3-6 2-5-8-4-2-1-11 2-1 1-1-2-5 7 6 7-5 1-2-2v4l-7-1-2 2v-1l-2-1-6 1-1-4-2 2-5-1 7-7-6-7v2l-2-1-10-2-3 1-7 4 1 5-2 6-3 3"/><path class="st4" d="M146 496v-1l7-7v1l9 11 1 2"/><path class="st2" d="M176 512l11-18 11-4v1l-20 21-3 1"/><path class="st1" d="M172 506v-3l4-11 13 2-1 1-11 17-5 3"/><path class="st6" d="M144 568l6-4-4-11-1-1h1l6-3h1v-1l10-3-7-3 12-13h-9l-2-5-3 1v-10h-1l-7 3-7 5 1-9-2-1h-3l-3 8-2-1-1-1-4-9-5-7 8-8 6 2 1 5 13 5-2 3 8-1 7 2h1l3 7 8-1h1v1l4 9-3 13-8 16-1-9-11 9 2 12-11 7"/><path class="st4" d="M117 519l-12-2-8 2h-1l-6-6 6-10 1 1v2l1 7 13-2-1-2-12-2v-1l11-2h2l9 5-2 5 2 6"/><path class="st4" d="M117 518h1v1"/><path class="st2" d="M98 513l-2-7h2l12 3 2 2 1 1-15 2"/><path class="st7" d="M160 511h1l8-4 5 11v1h-10"/><path class="st3" d="M153 549l-5-5-2-8h15l-2-5h-9l-1 1h-2l-12 1-14 4-3 1 11-14-4-8 2 1 2 2h1l1 1 4-8h3l3 1-1 9 6-5 8-2v-1l1 10 2-1h1l2 6 9-1h1l-13 14 8 3 1 1-13 4"/><path class="st6" d="M111 522l-6-5v-1l13 2-1 5m-12 17l13-9 4 1 1-10 7 2-10 14-5 2"/><path class="st4" d="M140 542h-1l1-1v-1 1l8-10h2l10-1v1l2 6h-15l2 7 5 5-1 1-7 3h-1"/><path class="st1" d="M140 541l-5-8-1-1h1l12-1 3-1-10 12"/><path class="st0" d="M102 552l1 1m19 21l-9-3-8 3h-1v-1l-3-3-7-9v-2h1l7-6-4-3h-1v-1l2-1h1l14-9 5-2 2-1 9 3 2-2 3-5 6 9-1 1-4 5 3 11-9-3v9l-4 10"/><path class="st5" d="M119 537l17-5-3 6-3 2"/><path class="st4" d="M97 549l3-9 6-1h10l-1 1-15 8-3 2"/><path class="st1" d="M138 557l-3-11 5-5 6 12-3 2-4 3h-1"/><path class="st7" d="M154 556l12-11v1l1 9v1l-8 1-1 9-2 3"/><path class="st2" d="M97 549h1l6 4h-1l-10 1"/><path class="st3" d="M142 577l-2-7 1-5v-1l-3-7 5-3 1-1 2-1 6 13-7 3 2 7-5 3"/><path class="st5" d="M94 560l-1-6 1-1 9-1 1 1-10 7m31 14v-1l4-9v-10h1l9 3v1l-5 5h9l-1 2-4 6-7 2-5 7"/><path class="st1" d="M87 558l7-5 1 7v8"/><path class="st6" d="M158 556l10-1-11 13"/><path class="st4" d="M132 563l1-1 5-5 1-1 3 7v1m-58 9v-2l-2-4h-1l7-10 7 9v2h-1l-8 4 1 2"/><path class="st5" d="M94 568v-8l8 10-8 4"/><path class="st2" d="M134 576l3-6 4-5h1l-1 5 2 8h-1l-9 2"/><path class="st1" d="M86 574l-1-2 1-1 8-4h1v6l6-4h1l3 5h-1l-9 3m0 9l-1 1-2 1-1 1-9 1-1-1 9-6 29-4 5 3 2-3 4-7 9-2-4 6-1 3v1h-2l-2 4-3 4-4 1h-2l-3 1 1-5-9 3-4-3-6 2-1 1v1l-3 3M110 588h1-1"/><path class="st5" d="M104 573l9-2 10 2v1l-11 4"/><path class="st1" d="M112 578l-1-1 11-4h4l-1 1-6 5"/><path class="st2" d="M81 590l-9-6-29-4-5 3-3-4 2-6 6 5 7-1 7-4h1l10 3 1 2h1l1 1v1l2 1h5v1l1 4h4l2-5h5l2-1v-1l1-1 2-2 9-3h1l7 4 7 1 6-5 2 6-3 4-5-3-28 4-9 6h-1"/><path class="st3" d="M78 587v-1l-1-3h-5l-2-2v-1l-1-1-1-1-1-2 9-3 2-1 3 6 3-6 2 1 10 3-2 2-1 1-1 1-2 2h-5l-1 5h-3"/><path class="st0" d="M118 598l-1-1 7-4 2-5v-1l4-5 1 10-2-1 2 5-6-1 2 3-4-1 1 3-2-1-1 2"/><path class="st5" d="M63 607l-3 3v-4l-2 3v-4l-2 1h-3v-1l-3 3 1-5-4 3 1-5-4 3 1-4-3 2 2-4-6-4-3-7h1l4 1 2 1h1l-2-5 12 4-4 3 6 1v5h5l4 3 2-5 7 4-1-6-1-5 10 1 11-1-2 5v6l7-4 1 5 5-3h5v-5l5-1-3-3 11-4-2 5h1l3-1 4-1-2 7-7 4h1l1 4-3-2 1 4-4-3 1 5-3-4v6l-3-3 1 1h-4l-1-1v4l-3-3v4l-2-4-1 6-2-6-9-5v5h-2l-1 5-2-3-2-2-2 2-2 3-1-5v1l-1-1v-5l-9 5-3 6"/><path class="st0" d="M96 597l-7 4v-8l2-5h1l2-2 2-1 1 5 1-2h1l1-1 7-3 4 4 4 3h-1l-5 2v5h-6l-5 3"/><path class="st1" d="M93 608v4l-3-6-3 5v-11l10 5-2 8"/><path class="st4" d="M44 390l-1-10-6-7h-2l-2 1-11 5-2-10-4-4-8 7-1-10 9 1v-1h1l4-5 12-10 9 4-11 4 3 10 3 6 8-2 5 3h1l5-6 8 4h1l3-8 8 3h1l-3-14h-1v-1l8-13v-2l8 15v1l-3 14 8-3 4 8 9-4 5 6 5-3 9 2 3-6 2-10-10-4 9-4 12 10 4 5 1 1 9-1-1 10-8-7-4 4-3 10-11-5-2-1h-1l-6 7-2 10-10 1 4-11-9-5h-1l-2 3-6-1-4-3-7-9-1-2-2 2-7 9-4 3-5 1-3-3h-1l-9 5 4 11-11-1zm-17-23l3-11-9 3 1 9 5 6v-6m108 0v6l6-6v-9l-9-3 3 11"/></svg>
