<svg id="Layer_1" data-name="Layer 1" xmlns="http://www.w3.org/2000/svg" viewBox="0 0 95 85"><defs/><defs><style>.cls-1{fill:#e6b9e8}</style></defs><path class="cls-1" d="M72.79 3.47L48.12 39.11 23.42 3.44a.5.5 0 00-.91.21l-8.35 56.1a.49.49 0 00.49.57h65.71a.5.5 0 00.5-.56L73.7 3.69a.5.5 0 00-.91-.22zM67.13 13L49.84 41.6l-1.26-1.81zm1.15-.42L51.81 44.46l-1.49-2.17zM49.41 42.32l-1.29 2.14-1.29-2.14 1.29-1.86zm-1.76-2.53l-1.26 1.81L29.1 13zm-1.73 2.5l-1.5 2.17L28 12.57zM21.74 59.56H15l7.74-52v52zm3.7 0h-2V14.39l2.89 45.17zm41.66 0h-40L23.7 6l20 38.82a.76.76 0 00.63.41h.05a.77.77 0 00.63-.33l1.34-1.9 1.11 1.84a.76.76 0 001.31 0L49.88 43l1.3 1.88a.77.77 0 00.63.33.76.76 0 00.63-.41L72.54 6l-3.42 53.56zm3.7 0h-.91l2.88-45.17v45.17zm2.73 0V8.44l6.53 51.12h-6.53zM55.66 74.81a8.08 8.08 0 01-.45 2.79A6.12 6.12 0 0154 79.71a5.5 5.5 0 01-2 1.34 6.39 6.39 0 01-2.47.46 6.31 6.31 0 01-2.46-.46 5.38 5.38 0 01-1.91-1.34A5.83 5.83 0 0144 77.6a8.08 8.08 0 01-.45-2.79A8.18 8.18 0 0144 72a6 6 0 011.25-2.12 5.38 5.38 0 011.91-1.34 6.31 6.31 0 012.46-.47 6.39 6.39 0 012.47.47A5.48 5.48 0 0154 69.88 6.36 6.36 0 0155.21 72a8.24 8.24 0 01.45 2.81zm-.25 0a8.14 8.14 0 00-.41-2.75 5.92 5.92 0 00-1.19-2 5 5 0 00-1.85-1.29 6.1 6.1 0 00-2.37-.45 6 6 0 00-2.35.45A5.07 5.07 0 0045.37 70a6.12 6.12 0 00-1.21 2 8.14 8.14 0 00-.43 2.75 8 8 0 00.43 2.73 6 6 0 001.21 2 5.33 5.33 0 001.85 1.29 6 6 0 002.35.44 6.1 6.1 0 002.37-.44 5.24 5.24 0 001.85-1.29 5.83 5.83 0 001.19-2 8 8 0 00.43-2.67z"/><path class="cls-1" d="M49.57 81.76a6.55 6.55 0 01-2.57-.48 5.57 5.57 0 01-2-1.4 6.34 6.34 0 01-1.3-2.19 9.25 9.25 0 010-5.76 6.63 6.63 0 011.3-2.21 5.82 5.82 0 012-1.4 7 7 0 015.11 0 5.63 5.63 0 012 1.41 6.17 6.17 0 011.3 2.2 9.09 9.09 0 010 5.77 6.22 6.22 0 01-1.3 2.19 5.48 5.48 0 01-2 1.4 6.63 6.63 0 01-2.54.47zm0-13.24a5.68 5.68 0 00-2.25.43 4.83 4.83 0 00-1.76 1.23 5.71 5.71 0 00-1.16 2 8.6 8.6 0 000 5.31 5.76 5.76 0 001.16 2 5 5 0 001.76 1.23 5.85 5.85 0 002.25.42 5.92 5.92 0 002.27-.42 5 5 0 001.76-1.23 5.58 5.58 0 001.15-2 8.8 8.8 0 000-5.31 5.69 5.69 0 00-1.15-2A4.83 4.83 0 0051.84 69a5.74 5.74 0 00-2.27-.48zM20 78.37a.56.56 0 000 .08l.05.11.05-.11a.56.56 0 00.05-.08L26 68.31a.14.14 0 01.13-.08h.08v13.15H26V68.72a.28.28 0 010-.09l-5.76 10a.17.17 0 01-.13.09h-.01a.17.17 0 01-.13-.09L14 68.64a.25.25 0 010 .08v12.66h-.18V68.23h.07a.14.14 0 01.13.08z"/><path class="cls-1" d="M26.23 81.63H26a.25.25 0 01-.25-.25v-11.8l-5.28 9.2a.41.41 0 01-.35.22.41.41 0 01-.39-.2l-5.49-9.24v11.82a.25.25 0 01-.25.25h-.18a.25.25 0 01-.25-.25V68.23a.25.25 0 01.25-.25h.07a.39.39 0 01.34.19l5.87 9.88 5.67-9.87a.42.42 0 01.35-.2h.08a.25.25 0 01.25.25v13.15a.25.25 0 01-.21.25zM31.34 81.38h-.23V68.23h.23z"/><rect class="cls-1" x="30.86" y="67.98" width=".73" height="13.65" rx=".25"/><path class="cls-1" d="M40.68 69.43a.12.12 0 01-.1.06s-.14-.06-.26-.19a2.54 2.54 0 00-.5-.42 4.31 4.31 0 00-.86-.42 3.84 3.84 0 00-1.32-.19 3.76 3.76 0 00-1.43.25 2.94 2.94 0 00-1.05.66 2.84 2.84 0 00-.64 1 2.92 2.92 0 00-.22 1.13 2.57 2.57 0 00.29 1.27 2.79 2.79 0 00.78.86 4.39 4.39 0 001.1.57q.62.24 1.26.45l1.25.44a4.45 4.45 0 011.1.6 2.9 2.9 0 01.78.89 2.67 2.67 0 01.29 1.33 4.17 4.17 0 01-.27 1.51 3.43 3.43 0 01-.79 1.22 3.53 3.53 0 01-1.27.82 4.57 4.57 0 01-1.71.3 5.38 5.38 0 01-1.19-.12 3.78 3.78 0 01-1.76-.87 6.05 6.05 0 01-.71-.72h.06s.09 0 .17.11l.29.31.45.39a5.13 5.13 0 00.64.39 4.55 4.55 0 00.86.3 5.18 5.18 0 001.1.11 4.11 4.11 0 001.62-.29 3.51 3.51 0 001.21-.78 3.27 3.27 0 00.75-1.15 3.87 3.87 0 00.26-1.4 2.69 2.69 0 00-.2-1.07 2.32 2.32 0 00-.52-.78 3.29 3.29 0 00-.76-.55 8.07 8.07 0 00-.94-.41c-.33-.13-.67-.24-1-.34s-.68-.22-1-.35a6.57 6.57 0 01-.93-.42 3.21 3.21 0 01-.77-.59 2.51 2.51 0 01-.52-.81 3 3 0 01-.19-1.13 3.1 3.1 0 01.24-1.2 2.81 2.81 0 01.68-1 3.31 3.31 0 011.11-.71 4.25 4.25 0 011.52-.26 4.3 4.3 0 011.7.31 4.22 4.22 0 011.38 1z"/><path class="cls-1" d="M37.11 81.78a5.79 5.79 0 01-1.24-.12 4.7 4.7 0 01-1-.36 4.58 4.58 0 01-.86-.57 5.8 5.8 0 01-.73-.75.24.24 0 010-.34l.1-.1a.45.45 0 01.57.14l.29.29c.12.11.26.24.43.37a3 3 0 00.59.36 3.83 3.83 0 00.81.28 4.1 4.1 0 001 .11 4 4 0 001.53-.27 3.4 3.4 0 001.12-.73 3.16 3.16 0 00.7-1.06 3.58 3.58 0 00.24-1.31 2.42 2.42 0 00-.18-1 2.19 2.19 0 00-.46-.69 2.86 2.86 0 00-.71-.51 7.41 7.41 0 00-.9-.4c-.33-.12-.66-.23-1-.33l-1-.35a7.89 7.89 0 01-1-.44 4 4 0 01-.83-.63 2.94 2.94 0 01-.57-.9 3.25 3.25 0 01-.21-1.22 3.62 3.62 0 01.25-1.3 3.26 3.26 0 01.75-1.1 3.52 3.52 0 011.2-.74 4.49 4.49 0 011.61-.28 4.57 4.57 0 011.79.33 4.46 4.46 0 011.47 1 .26.26 0 010 .32.36.36 0 01-.29.14c-.14 0-.27-.08-.44-.27a2.62 2.62 0 00-.47-.38 3.51 3.51 0 00-.8-.39 3.59 3.59 0 00-1.23-.18 3.69 3.69 0 00-1.34.23 2.92 2.92 0 00-1 .61 2.44 2.44 0 00-.59.87 2.83 2.83 0 00-.2 1 2.33 2.33 0 00.26 1.15 2.51 2.51 0 00.71.78 4.17 4.17 0 001 .54l1.25.44c.43.14.86.29 1.27.45a4.46 4.46 0 011.16.63 3.17 3.17 0 01.85 1 3 3 0 01.32 1.45 4.21 4.21 0 01-.29 1.6 3.73 3.73 0 01-.84 1.3 3.81 3.81 0 01-1.35.88 4.91 4.91 0 01-1.74.45zm3.57-12.35zM66.83 77.14h2.78v.07c0 .08 0 .11-.15.11h-2.63v3.87h-.23v-3.87h-6.64a.18.18 0 01-.05-.07v-.08l6.8-8.94h.14zM66.6 69v-.2a.88.88 0 010-.16l-6.46 8.5h6.46z"/><path class="cls-1" d="M66.83 81.44h-.23a.25.25 0 01-.25-.25v-3.62h-6.27a.41.41 0 01-.31-.1.49.49 0 01-.09-.15v-.11a.26.26 0 010-.21l6.8-8.94a.28.28 0 01.2-.1h.14a.25.25 0 01.25.25v8.68h2.53a.25.25 0 01.25.25v.07a.37.37 0 01-.41.36h-2.36v3.62a.25.25 0 01-.25.25zm-6.17-4.55h5.69V69.4zM73.16 81.19V69v-.54l-3.4 3.08a.12.12 0 01-.09 0 .13.13 0 01-.1 0v-.08l3.7-3.32h.13v13z"/><path class="cls-1" d="M73.39 81.44h-.23a.25.25 0 01-.25-.25V69.08L70 71.74a.36.36 0 01-.26.11.39.39 0 01-.3-.14v-.08a.25.25 0 010-.34L73.09 68a.27.27 0 01.17-.06h.13a.25.25 0 01.25.25v13a.25.25 0 01-.25.25zm-3.77-10.06zM80.93 81.19V69a7.33 7.33 0 010-.54l-3.39 3.08a.16.16 0 01-.1 0 .1.1 0 01-.09 0l-.06-.08 3.71-3.3h.13v13z"/><path class="cls-1" d="M81.15 81.44h-.22a.25.25 0 01-.25-.25V69.08l-3 2.66a.37.37 0 01-.55 0l-.06-.08a.26.26 0 010-.34L80.85 68a.27.27 0 01.17-.06h.13a.25.25 0 01.25.25v13a.25.25 0 01-.25.25zm-3.76-10.06z"/></svg>
