<svg id="Layer_1" data-name="Layer 1" xmlns="http://www.w3.org/2000/svg" viewBox="0 0 95 85"><defs><style>.cls-1{fill:#e6b9e8;}</style></defs><title>MISO_logo_rework_B</title><path class="cls-1" d="M72.79,3.47,48.12,39.11,23.42,3.44a.5.5,0,0,0-.91.21l-8.35,56.1a.49.49,0,0,0,.49.57H80.36a.5.5,0,0,0,.5-.56L73.7,3.69A.5.5,0,0,0,72.79,3.47ZM67.13,13,49.84,41.6l-1.26-1.81Zm1.15-.42L51.81,44.46l-1.49-2.17ZM49.41,42.32l-1.29,2.14-1.29-2.14,1.29-1.86Zm-1.76-2.53L46.39,41.6,29.1,13Zm-1.73,2.5-1.5,2.17L28,12.57ZM21.74,59.56H15l7.74-52v52Zm3.7,0h-2V14.39l2.89,45.17Zm41.66,0h-40L23.7,6l20,38.82a.76.76,0,0,0,.63.41h.05a.77.77,0,0,0,.63-.33L46.35,43l1.11,1.84a.76.76,0,0,0,1.31,0L49.88,43l1.3,1.88a.77.77,0,0,0,.63.33h0a.76.76,0,0,0,.63-.41L72.54,6,69.12,59.56Zm3.7,0h-.91l2.88-45.17V59.56Zm2.73,0V8.44l6.53,51.12H73.53Z"/><path class="cls-1" d="M55.66,74.81a8.08,8.08,0,0,1-.45,2.79A6.12,6.12,0,0,1,54,79.71,5.5,5.5,0,0,1,52,81.05a6.39,6.39,0,0,1-2.47.46,6.31,6.31,0,0,1-2.46-.46,5.38,5.38,0,0,1-1.91-1.34A5.83,5.83,0,0,1,44,77.6a8.08,8.08,0,0,1-.45-2.79A8.18,8.18,0,0,1,44,72a6,6,0,0,1,1.25-2.12,5.38,5.38,0,0,1,1.91-1.34,6.31,6.31,0,0,1,2.46-.47,6.39,6.39,0,0,1,2.47.47A5.48,5.48,0,0,1,54,69.88,6.36,6.36,0,0,1,55.21,72,8.24,8.24,0,0,1,55.66,74.81Zm-.25,0A8.14,8.14,0,0,0,55,72.06a5.92,5.92,0,0,0-1.19-2,5,5,0,0,0-1.85-1.29,6.1,6.1,0,0,0-2.37-.45,6,6,0,0,0-2.35.45A5.07,5.07,0,0,0,45.37,70a6.12,6.12,0,0,0-1.21,2,8.14,8.14,0,0,0-.43,2.75,8,8,0,0,0,.43,2.73,6,6,0,0,0,1.21,2,5.33,5.33,0,0,0,1.85,1.29,6,6,0,0,0,2.35.44,6.1,6.1,0,0,0,2.37-.44,5.24,5.24,0,0,0,1.85-1.29,5.83,5.83,0,0,0,1.19-2A8,8,0,0,0,55.41,74.81Z"/><path class="cls-1" d="M49.57,81.76A6.55,6.55,0,0,1,47,81.28a5.57,5.57,0,0,1-2-1.4,6.34,6.34,0,0,1-1.3-2.19,9.25,9.25,0,0,1,0-5.76A6.63,6.63,0,0,1,45,69.72a5.82,5.82,0,0,1,2-1.4,7,7,0,0,1,5.11,0,5.63,5.63,0,0,1,2,1.41,6.17,6.17,0,0,1,1.3,2.2,9.09,9.09,0,0,1,0,5.77,6.22,6.22,0,0,1-1.3,2.19,5.48,5.48,0,0,1-2,1.4A6.63,6.63,0,0,1,49.57,81.76Zm0-13.24a5.68,5.68,0,0,0-2.25.43,4.83,4.83,0,0,0-1.76,1.23,5.71,5.71,0,0,0-1.16,2,8.6,8.6,0,0,0,0,5.31,5.76,5.76,0,0,0,1.16,2,5,5,0,0,0,1.76,1.23,5.85,5.85,0,0,0,2.25.42,5.92,5.92,0,0,0,2.27-.42,5,5,0,0,0,1.76-1.23,5.58,5.58,0,0,0,1.15-2,8.8,8.8,0,0,0,0-5.31,5.69,5.69,0,0,0-1.15-2A4.83,4.83,0,0,0,51.84,69,5.74,5.74,0,0,0,49.57,68.52Z"/><path class="cls-1" d="M20,78.37a.56.56,0,0,0,0,.08l.05.11.05-.11a.56.56,0,0,0,.05-.08L26,68.31a.14.14,0,0,1,.13-.08h.08V81.38H26V68.72a.28.28,0,0,1,0-.09l-5.76,10a.17.17,0,0,1-.13.09H20.1a.17.17,0,0,1-.13-.09L14,68.64a.25.25,0,0,1,0,.08V81.38h-.18V68.23h.07a.14.14,0,0,1,.13.08Z"/><path class="cls-1" d="M26.23,81.63H26a.25.25,0,0,1-.25-.25V69.58l-5.28,9.2a.41.41,0,0,1-.35.22.41.41,0,0,1-.39-.2l-5.49-9.24V81.38a.25.25,0,0,1-.25.25h-.18a.25.25,0,0,1-.25-.25V68.23a.25.25,0,0,1,.25-.25h.07a.39.39,0,0,1,.34.19l5.87,9.88,5.67-9.87a.42.42,0,0,1,.35-.2h.08a.25.25,0,0,1,.25.25V81.38A.25.25,0,0,1,26.23,81.63Z"/><path class="cls-1" d="M31.34,81.38h-.23V68.23h.23Z"/><rect class="cls-1" x="30.86" y="67.98" width="0.73" height="13.65" rx="0.25"/><path class="cls-1" d="M40.68,69.43a.12.12,0,0,1-.1.06s-.14-.06-.26-.19a2.54,2.54,0,0,0-.5-.42,4.31,4.31,0,0,0-.86-.42,3.84,3.84,0,0,0-1.32-.19,3.76,3.76,0,0,0-1.43.25,2.94,2.94,0,0,0-1.05.66,2.84,2.84,0,0,0-.64,1,2.92,2.92,0,0,0-.22,1.13,2.57,2.57,0,0,0,.29,1.27,2.79,2.79,0,0,0,.78.86,4.39,4.39,0,0,0,1.1.57q.62.24,1.26.45l1.25.44a4.45,4.45,0,0,1,1.1.6,2.9,2.9,0,0,1,.78.89,2.67,2.67,0,0,1,.29,1.33,4.17,4.17,0,0,1-.27,1.51,3.43,3.43,0,0,1-.79,1.22,3.53,3.53,0,0,1-1.27.82,4.57,4.57,0,0,1-1.71.3,5.38,5.38,0,0,1-1.19-.12,3.78,3.78,0,0,1-1.76-.87,6.05,6.05,0,0,1-.71-.72l0,0,0,0h.06s.09,0,.17.11l.29.31.45.39a5.13,5.13,0,0,0,.64.39,4.55,4.55,0,0,0,.86.3,5.18,5.18,0,0,0,1.1.11,4.11,4.11,0,0,0,1.62-.29,3.51,3.51,0,0,0,1.21-.78,3.27,3.27,0,0,0,.75-1.15,3.87,3.87,0,0,0,.26-1.4,2.69,2.69,0,0,0-.2-1.07,2.32,2.32,0,0,0-.52-.78,3.29,3.29,0,0,0-.76-.55,8.07,8.07,0,0,0-.94-.41c-.33-.13-.67-.24-1-.34s-.68-.22-1-.35a6.57,6.57,0,0,1-.93-.42,3.21,3.21,0,0,1-.77-.59,2.51,2.51,0,0,1-.52-.81,3,3,0,0,1-.19-1.13,3.1,3.1,0,0,1,.24-1.2,2.81,2.81,0,0,1,.68-1,3.31,3.31,0,0,1,1.11-.71,4.25,4.25,0,0,1,1.52-.26,4.3,4.3,0,0,1,1.7.31,4.22,4.22,0,0,1,1.38,1Z"/><path class="cls-1" d="M37.11,81.78a5.79,5.79,0,0,1-1.24-.12,4.7,4.7,0,0,1-1-.36,4.58,4.58,0,0,1-.86-.57,5.8,5.8,0,0,1-.73-.75.24.24,0,0,1,0-.34l.1-.1a.45.45,0,0,1,.57.14l.29.29c.12.11.26.24.43.37a3,3,0,0,0,.59.36,3.83,3.83,0,0,0,.81.28,4.1,4.1,0,0,0,1,.11,4,4,0,0,0,1.53-.27,3.4,3.4,0,0,0,1.12-.73,3.16,3.16,0,0,0,.7-1.06,3.58,3.58,0,0,0,.24-1.31,2.42,2.42,0,0,0-.18-1,2.19,2.19,0,0,0-.46-.69,2.86,2.86,0,0,0-.71-.51,7.41,7.41,0,0,0-.9-.4c-.33-.12-.66-.23-1-.33l-1-.35a7.89,7.89,0,0,1-1-.44,4,4,0,0,1-.83-.63,2.94,2.94,0,0,1-.57-.9,3.25,3.25,0,0,1-.21-1.22,3.62,3.62,0,0,1,.25-1.3,3.26,3.26,0,0,1,.75-1.1A3.52,3.52,0,0,1,36,68.11a4.49,4.49,0,0,1,1.61-.28,4.57,4.57,0,0,1,1.79.33,4.46,4.46,0,0,1,1.47,1,.26.26,0,0,1,0,.32l0,0s0,0,0,0a.36.36,0,0,1-.29.14c-.14,0-.27-.08-.44-.27a2.62,2.62,0,0,0-.47-.38,3.51,3.51,0,0,0-.8-.39,3.59,3.59,0,0,0-1.23-.18,3.69,3.69,0,0,0-1.34.23,2.92,2.92,0,0,0-1,.61,2.44,2.44,0,0,0-.59.87,2.83,2.83,0,0,0-.2,1,2.33,2.33,0,0,0,.26,1.15,2.51,2.51,0,0,0,.71.78,4.17,4.17,0,0,0,1,.54l1.25.44c.43.14.86.29,1.27.45a4.46,4.46,0,0,1,1.16.63,3.17,3.17,0,0,1,.85,1,3,3,0,0,1,.32,1.45,4.21,4.21,0,0,1-.29,1.6,3.73,3.73,0,0,1-.84,1.3,3.81,3.81,0,0,1-1.35.88A4.91,4.91,0,0,1,37.11,81.78Zm3.57-12.35h0Z"/><path class="cls-1" d="M66.83,77.14h2.78v.07c0,.08,0,.11-.15.11H66.83v3.87H66.6V77.32H60.08c-.07,0-.11,0-.12,0a.18.18,0,0,1-.05-.07l0-.08,6.8-8.94h.14ZM66.6,69V68.8a.88.88,0,0,1,0-.16l-6.46,8.5H66.6Z"/><path class="cls-1" d="M66.83,81.44H66.6a.25.25,0,0,1-.25-.25V77.57H60.08a.41.41,0,0,1-.31-.1.49.49,0,0,1-.09-.15l0-.11a.26.26,0,0,1,0-.21l6.8-8.94a.28.28,0,0,1,.2-.1h.14a.25.25,0,0,1,.25.25v8.68h2.53a.25.25,0,0,1,.25.25v.07a.37.37,0,0,1-.41.36H67.08v3.62A.25.25,0,0,1,66.83,81.44Zm-6.17-4.55h5.69V69.4Z"/><path class="cls-1" d="M73.16,81.19V69c0-.09,0-.18,0-.27l0-.27-3.4,3.08a.12.12,0,0,1-.09,0,.13.13,0,0,1-.1,0l0-.08,3.7-3.32h.13v13Z"/><path class="cls-1" d="M73.39,81.44h-.23a.25.25,0,0,1-.25-.25V69.08L70,71.74a.36.36,0,0,1-.26.11.39.39,0,0,1-.3-.14l0-.08a.25.25,0,0,1,0-.34L73.09,68a.27.27,0,0,1,.17-.06h.13a.25.25,0,0,1,.25.25v13A.25.25,0,0,1,73.39,81.44ZM69.62,71.38Z"/><path class="cls-1" d="M80.93,81.19V69a7.33,7.33,0,0,1,0-.54l-3.39,3.08a.16.16,0,0,1-.1,0,.1.1,0,0,1-.09,0l-.06-.08L81,68.16h.13v13Z"/><path class="cls-1" d="M81.15,81.44h-.22a.25.25,0,0,1-.25-.25V69.08l-3,2.66a.37.37,0,0,1-.55,0l-.06-.08a.26.26,0,0,1,0-.34L80.85,68a.27.27,0,0,1,.17-.06h.13a.25.25,0,0,1,.25.25v13A.25.25,0,0,1,81.15,81.44ZM77.39,71.38Z"/></svg>