<svg version="1.1" id="Layer_1" xmlns="http://www.w3.org/2000/svg" x="0" y="0" xml:space="preserve" viewBox="0 0 391.1 74"><defs/><style>.st0{fill:#d3002d}</style><path class="st0" d="M196.6 16.3V5.8h-44.1v63.3h44.1V58.6h-33.5V42.7h31.8V32.2h-31.8V16.3zM229.2 69.1V5.8h10.6v52.8h30.5v10.5zM278.9 69.1V5.8h10.5v52.8h30.5v10.5zM207.6 5.8h10.6v63.3h-10.6zM20.7 21.9a22.4 22.4 0 000 31.8A22.4 22.4 0 0059 37.8a22.4 22.4 0 00-22.5-22.5c-6.2 0-11.7 2.5-15.8 6.6M3.6 37.8a33 33 0 1166 0 33 33 0 01-66 0M102.2 32.2V16.3h21.3c4.4 0 7.9 3.5 7.9 7.9s-3.5 7.9-7.9 7.9h-21.3zm26.5 9.8a18.5 18.5 0 00-5.3-36.2H91.6v63.3h10.6V42.7h14.7l15.9 26.4h12.3L128.7 42zM84.1 12.5a7.8 7.8 0 11-15.6 0 7.8 7.8 0 0115.6 0M366.9 5.8h-12.8l-16.2 23.5-16.3-23.5h-12.8l23.8 34.4v28.9h10.5V40.3zM379.4 18.8a6.6 6.6 0 110-13.2 6.6 6.6 0 010 13.2m0-14.4a7.8 7.8 0 100 15.6 7.8 7.8 0 000-15.6"/><path class="st0" d="M377.5 9.5h3.1c.6 0 1 .4 1 1s-.4 1-1 1h-3.1v-2zm5.4 1c0-1.3-1-2.3-2.3-2.3h-4.4v8h1.3v-3.3h2.2l1.6 3.3h1.5l-1.6-3.4c1-.3 1.7-1.2 1.7-2.3"/></svg>
