<svg xmlns="http://www.w3.org/2000/svg" viewBox="0 0 212.6 283.5"><defs/><path fill="#090" d="M211.6 194.7a113 113 0 00-22.2-18.5c7.8-5 15.3-11.3 22.1-18.6-8.9-4.5-18.1-7.8-27.2-9.8 5.6-7.4 10.5-15.9 14.5-25-9.9-1.2-19.6-1.1-28.9.1a114 114 0 005-28.5c-9.7 2.3-18.9 5.6-27.1 9.9-.5-9.3-2.1-18.9-5-28.5a122.2 122.2 0 00-22.1 18.6c-3.6-8.6-8.5-17-14.5-25-6 8-10.8 16.5-14.4 25.1a114.6 114.6 0 00-22.1-18.6c-2.9 9.5-4.5 19.1-5 28.4a118 118 0 00-27.1-9.9c.6 10 2.3 19.6 5.1 28.5-9.3-1.2-19-1.2-29 0 3.9 9.2 8.8 17.6 14.5 25-9.1 2.1-18.3 5.4-27.2 9.9a113 113 0 0022.2 18.5c-7.8 5-15.3 11.3-22.1 18.6 8.9 4.5 18.1 7.8 27.2 9.8a124.8 124.8 0 00-14.5 25c9.9 1.2 19.6 1.1 28.8 0-2.8 8.9-4.5 18.5-5 28.4 9.7-2.3 18.9-5.6 27.1-9.9.4 9.3 2.1 18.9 5 28.5 8.3-5.5 15.8-11.7 22.1-18.6 3.6 8.6 8.5 17.1 14.5 25.1 6-8 10.8-16.5 14.4-25.1 6.3 6.9 13.8 13.2 22.2 18.6 2.9-9.5 4.5-19.1 5-28.5 8.3 4.3 17.5 7.6 27.2 9.9a118 118 0 00-5.1-28.4c9.2 1.2 19 1.2 28.9 0-3.9-9.2-8.8-17.6-14.5-25a126 126 0 0027.2-10z"/><path fill="#9C0" d="M184.4 204.6a94.7 94.7 0 00-17.5-17.7 96.2 96.2 0 0022.5-10.7 95.8 95.8 0 00-22.5-10.6 95.4 95.4 0 0017.5-17.8 91.8 91.8 0 00-24.8-2.3 92 92 0 0010.3-22.7 95 95 0 00-24.1 6.3 92.6 92.6 0 001.9-24.9c-7.6 4-14.5 8.7-20.4 14.2-1.1-8-3.3-16.1-6.7-24a92.4 92.4 0 00-14.4 20.4c-3.7-7.1-8.6-14-14.5-20.3-3.3 7.9-5.5 16-6.5 23.9a92.5 92.5 0 00-20.6-14.1c-.4 8.6.3 17 2 24.9a92.7 92.7 0 00-24.1-6.2 97.2 97.2 0 0010.4 22.6c-8-.3-16.4.5-24.9 2.4a94.7 94.7 0 0017.5 17.7A96.2 96.2 0 0023 176.4 95.8 95.8 0 0045.5 187 95.4 95.4 0 0028 204.8a91.4 91.4 0 0024.7 2.3 92 92 0 00-10.3 22.7 93.8 93.8 0 0024.1-6.3 96 96 0 00-2 24.8c7.7-4 14.6-8.7 20.5-14.1 1.1 8 3.3 16.1 6.6 24a97.9 97.9 0 0014.4-20.3c3.7 7.1 8.6 14 14.5 20.3 3.3-7.9 5.5-16 6.6-24a92.5 92.5 0 0020.6 14.1 96 96 0 00-2-24.8 93.7 93.7 0 0024.1 6.2 97.2 97.2 0 00-10.4-22.6c8.2.2 16.6-.6 25-2.5z"/><path fill="#FF0" d="M147.8 176.3a74.4 74.4 0 0019.2-10.7 74.4 74.4 0 00-21.6-3.5 69.7 69.7 0 0014.3-16.6c-7.5.3-14.8 1.7-21.5 4.2a70.3 70.3 0 007.8-20.5c-7 2.9-13.3 6.7-18.8 11.3 1.2-7.1 1.3-14.5.3-22a72.5 72.5 0 00-13.9 17.1 73.5 73.5 0 00-7.2-20.8 73 73 0 00-7.1 20.6 72 72 0 00-13.9-17c-1 7.5-.9 14.9.3 22a70 70 0 00-18.9-11.2 70.3 70.3 0 007.8 20.5c-6.7-2.4-14-3.8-21.5-4.1a76.8 76.8 0 0014.3 16.6c-7.2 0-14.5 1.2-21.7 3.5 6 4.6 12.4 8.2 19.2 10.6A74.4 74.4 0 0045.7 187a78 78 0 0021.6 3.5 72.4 72.4 0 00-14.4 16.6c7.5-.3 14.8-1.7 21.5-4.1a71.4 71.4 0 00-7.8 20.5c7-2.9 13.3-6.7 18.8-11.3a73 73 0 00-.3 21.9 72 72 0 0013.9-17c1.3 7.1 3.7 14 7.2 20.7a72.9 72.9 0 007.2-20.7 72 72 0 0013.9 17c1-7.5.9-14.9-.3-21.9a73 73 0 0018.9 11.3 70.3 70.3 0 00-7.8-20.5c6.8 2.4 14 3.8 21.6 4.1a74.5 74.5 0 00-14.4-16.6c7.2 0 14.5-1.2 21.7-3.5a70.4 70.4 0 00-19.2-10.7z"/><path fill="#FFF" d="M127.3 179.9a59 59 0 0020.4-3.7 59.4 59.4 0 00-20.4-3.7c6.6-2.4 12.6-6 17.9-10.5-7 0-13.9 1.1-20.5 3.5 5.4-4.5 9.8-9.9 13.3-16a59.7 59.7 0 00-18 10.3 60 60 0 007-19.5 60.7 60.7 0 00-13.5 15.9 60.5 60.5 0 00-.1-20.8c-3.5 6-5.9 12.5-7.1 19.3a58.8 58.8 0 00-7.2-19.5A60.5 60.5 0 0099 156a60.3 60.3 0 00-13.4-15.9 58.4 58.4 0 007 19.5 61 61 0 00-18-10.3 60 60 0 0013.3 16 59.6 59.6 0 00-20.4-3.5c5.3 4.5 11.3 8 17.9 10.5a60 60 0 00-20.5 3.7 59.4 59.4 0 0020.4 3.7c-6.6 2.4-12.6 6-18 10.5 7 0 13.9-1.1 20.5-3.5a58.6 58.6 0 00-13.3 16 58.5 58.5 0 0018-10.3 59.8 59.8 0 00-7 19.6c5.4-4.5 9.9-9.8 13.4-15.8a60 60 0 00.1 20.7 59 59 0 007.2-19.4 59.6 59.6 0 007.2 19.5 60 60 0 00.1-20.7 58.3 58.3 0 0013.4 15.8 59.2 59.2 0 00-7-19.5 60.2 60.2 0 0018.1 10.3 60 60 0 00-13.3-16 59.7 59.7 0 0020.5 3.5c-5.3-4.5-11.3-8-17.9-10.5z"/><g><g fill="#090"><path d="M163.6 33.5c0 6.1-2.2 14.5-10.8 14.5-10.4 0-10.4-11.7-10.4-14.1 0-2.4 0-14.8 10.7-14.8 9.7-.1 10.5 10.7 10.5 14.4zM142.6 1h-7v44.8l-.2 6.7h6.7l.2-5.6c.7 1.1 1.6 2.4 3.6 3.8 3.2 2.2 6.5 2.4 8.3 2.4a16 16 0 0013.1-6.4c1.9-2.4 3.6-6.4 3.6-13.6 0-8.2-2.5-11.9-4.4-14a15.2 15.2 0 00-11.8-4.8c-8.5 0-11.2 4.7-12.2 6.4V1h.1zM182.9 35c0-3.3 0-15.1 11.1-15.1 8.2 0 10.2 7 10.2 13.7 0 2.7-.4 8-3 11.7-2.4 3.3-6.1 3.6-7.9 3.6-9.7-.1-10.4-9.4-10.4-13.9zm-6.6 31.8h6.9V48.4c2 3.3 6 5.6 11.4 5.6 8.9 0 17-6.1 17-20 0-13.8-7.6-19.3-15.6-19.3-3 0-9.2.9-12.7 6.8l-.1-6.2h-7l.2 6.1-.1 45.4z"/></g></g></svg>
